<svg width="428" height="279" viewBox="0 0 428 279" fill="none" xmlns="http://www.w3.org/2000/svg">
<g clip-path="url(#clip0)">
<path d="M116.749 0H0V128.48H116.749V0Z" fill="#E6E6E6"/>
<path d="M114.463 2.71809H2.0816V125.762H114.463V2.71809Z" fill="white"/>
<path d="M58.3745 121.387C61.8536 121.387 64.674 118.644 64.674 115.26C64.674 111.877 61.8536 109.134 58.3745 109.134C54.8954 109.134 52.075 111.877 52.075 115.26C52.075 118.644 54.8954 121.387 58.3745 121.387Z" fill="#E6E6E6"/>
<path d="M57.3103 46.273H21.1284V49.8728H57.3103V46.273Z" fill="#E6E6E6"/>
<path d="M75.7367 57.0602H21.1284V60.66H75.7367V57.0602Z" fill="#8ECC8E"/>
<path d="M70.3764 67.9151H21.1284V71.515H70.3764V67.9151Z" fill="#E6E6E6"/>
<path d="M97.1778 78.4833H21.1284V82.0831H97.1778V78.4833Z" fill="#8ECC8E"/>
<path d="M83.8973 88.548H21.9188V92.1479H83.8973V88.548Z" fill="#E6E6E6"/>
<path d="M58.273 10.0065C55.6235 10.0064 53.0335 10.7704 50.8305 12.2018C48.6275 13.6333 46.9104 15.668 45.8963 18.0485C44.8823 20.4291 44.6169 23.0487 45.1336 25.5759C45.6504 28.1032 46.9261 30.4247 48.7994 32.2469C50.6728 34.069 53.0597 35.31 55.6582 35.8128C58.2568 36.3156 60.9503 36.0578 63.3981 35.0718C65.8459 34.0858 67.9382 32.4161 69.4103 30.2736C70.8824 28.1312 71.6682 25.6123 71.6683 23.0356V23.0349C71.6683 21.324 71.3218 19.6298 70.6486 18.0492C69.9754 16.4685 68.9886 15.0323 67.7447 13.8225C66.5008 12.6127 65.024 11.653 63.3987 10.9983C61.7735 10.3435 60.0315 10.0065 58.2723 10.0065H58.273ZM58.273 13.9147C59.0678 13.9147 59.8447 14.1439 60.5055 14.5733C61.1664 15.0028 61.6814 15.6131 61.9856 16.3273C62.2897 17.0414 62.3693 17.8272 62.2143 18.5853C62.0592 19.3434 61.6765 20.0398 61.1145 20.5863C60.5525 21.1329 59.8365 21.5051 59.057 21.6559C58.2775 21.8067 57.4695 21.7293 56.7352 21.4335C56.001 21.1377 55.3734 20.6368 54.9318 19.9941C54.4903 19.3514 54.2546 18.5958 54.2546 17.8229C54.2546 16.7864 54.678 15.7923 55.4316 15.0594C56.1852 14.3265 57.2073 13.9147 58.273 13.9147ZM58.273 32.7303C56.6854 32.7233 55.1236 32.3396 53.723 31.6127C52.3223 30.8857 51.1252 29.8374 50.2354 28.5586C50.3 25.9529 55.5938 24.5187 58.273 24.5187C60.9522 24.5187 66.2461 25.9529 66.3106 28.5586C65.4198 29.8364 64.2225 30.884 62.8221 31.6109C61.4217 32.3377 59.8603 32.722 58.273 32.7303Z" fill="#8ECC8E"/>
<path d="M428 148.284C428 204.718 391.222 252.801 339.709 271.098C331.872 273.887 323.783 275.951 315.549 277.265C292.895 280.879 269.668 278.827 248.054 271.304C196.214 253.158 159.168 204.912 159.192 148.257C159.192 76.0935 219.368 17.5685 293.596 17.5685C321.649 17.5288 349.005 26.0644 371.799 41.9688C405.827 65.6798 428 104.463 428 148.284Z" fill="#E5E5E5"/>
<path d="M339.709 271.098C331.872 273.886 323.783 275.951 315.549 277.265C292.895 280.879 269.668 278.827 248.054 271.304L254.26 247.082L254.635 245.628L267.302 245.675L330.936 245.897L331.751 248.238L339.709 271.098Z" fill="#2F2E41"/>
<path d="M166.013 209.062C166.457 209.506 166.864 209.983 167.231 210.488L224.295 209.13L230.952 197.299L250.624 204.737L240.931 226.795C240.148 228.577 238.792 230.064 237.066 231.032C235.34 232.001 233.338 232.399 231.36 232.166L166.887 224.592C165.366 226.464 163.295 227.842 160.949 228.542C158.604 229.242 156.094 229.23 153.756 228.51C151.417 227.789 149.359 226.392 147.856 224.506C146.353 222.62 145.476 220.334 145.342 217.951C145.207 215.569 145.822 213.203 147.104 211.168C148.386 209.134 150.274 207.527 152.518 206.562C154.762 205.597 157.255 205.319 159.665 205.765C162.075 206.211 164.289 207.36 166.011 209.06L166.013 209.062Z" fill="#9F616A"/>
<path d="M242.819 141.506L269.524 132.994L277.368 122.533L315.537 124.729L321.141 136.937L341.493 146.291L338.365 202.785L333.014 255.657C305.499 241.8 254.148 252.364 253.699 252.536L242.819 141.506Z" fill="#8ECC8E"/>
<path d="M248.528 217.975L221.364 207.405L221.48 206.935C221.596 206.459 233.157 159.474 234.693 151.924C236.292 144.057 242.134 141.882 242.382 141.794L242.563 141.729L253.313 144.911L258.034 180.989L248.528 217.975Z" fill="#8ECC8E"/>
<path d="M307.179 253.333C307.816 253.318 308.452 253.352 309.084 253.435L346.858 211.815L342.464 199.026L361.447 190.053L371.489 211.963C372.3 213.733 372.499 215.712 372.056 217.601C371.613 219.49 370.551 221.189 369.031 222.442L319.485 263.27C319.862 265.627 319.493 268.041 318.426 270.19C317.358 272.338 315.644 274.12 313.51 275.297C311.376 276.475 308.924 276.993 306.48 276.782C304.036 276.572 301.716 275.642 299.829 274.118C297.941 272.594 296.575 270.547 295.913 268.249C295.251 265.952 295.324 263.513 296.121 261.256C296.919 259 298.405 257.033 300.38 255.618C302.355 254.202 304.727 253.405 307.179 253.333Z" fill="#9F616A"/>
<path d="M343.843 215.866L328.085 179.818L334.231 154.708L340.853 146.572C341.338 146.37 341.861 146.268 342.389 146.273C342.916 146.278 343.437 146.389 343.918 146.599C346.361 147.555 348.439 150.485 350.099 155.308L364.867 196.217L343.843 215.866Z" fill="#8ECC8E"/>
<path d="M262.089 109.175V81.9978C262.073 77.2155 263.025 72.4768 264.892 68.0524C266.759 63.628 269.503 59.6045 272.969 56.2117C276.434 52.8188 280.553 50.123 285.09 48.2783C289.626 46.4335 294.492 45.4758 299.41 45.46C304.327 45.4441 309.199 46.3704 313.749 48.1859C318.298 50.0014 322.435 52.6706 325.924 56.041C329.412 59.4115 332.184 63.4172 334.081 67.8295C335.978 72.2417 336.962 76.9742 336.979 81.7566C336.979 81.837 336.979 81.9174 336.979 81.9978V109.175C336.977 110.472 336.447 111.715 335.504 112.632C334.561 113.549 333.282 114.065 331.949 114.067H267.119C265.785 114.065 264.507 113.549 263.564 112.632C262.621 111.715 262.091 110.472 262.089 109.175Z" fill="#2F2E41"/>
<path d="M291.839 113.434C307.001 113.434 319.292 101.48 319.292 86.7339C319.292 71.988 307.001 60.0342 291.839 60.0342C276.677 60.0342 264.386 71.988 264.386 86.7339C264.386 101.48 276.677 113.434 291.839 113.434Z" fill="#9F616A"/>
<path d="M253.231 84.172C253.239 76.5344 256.363 69.212 261.916 63.8114C267.469 58.4107 274.998 55.3729 282.851 55.3643H288.44C296.293 55.3729 303.822 58.4107 309.375 63.8114C314.928 69.212 318.052 76.5344 318.06 84.172V84.7155H306.249L302.221 73.7433L301.415 84.7155H295.312L293.279 79.1803L292.872 84.7155H253.231V84.172Z" fill="#2F2E41"/>
<path d="M289.138 117.123C288.583 116.393 288.252 115.525 288.182 114.62C288.113 113.715 288.307 112.809 288.744 112.006C294.666 101.051 302.958 80.8067 291.952 68.3221L291.163 67.4261H323.117V114.084L294.089 119.065C293.795 119.115 293.498 119.141 293.199 119.141C292.407 119.141 291.626 118.958 290.92 118.608C290.214 118.257 289.604 117.749 289.14 117.124L289.138 117.123Z" fill="#2F2E41"/>
<path d="M58.4286 117.609C63.9473 107.773 77.1678 101.544 87.9824 107.159C92.8503 109.686 96.7199 114.155 97.9483 119.438C99.3738 125.575 96.37 131.427 93.2694 136.583C91.5865 139.381 89.7423 142.122 88.3494 145.074C86.9072 148.131 85.8764 151.664 86.9622 154.989C87.9397 157.985 90.3907 160.164 93.0747 161.766C96.037 163.466 99.1879 164.835 102.467 165.845C109.217 168.029 116.337 168.925 123.436 168.484C126.964 168.251 130.463 167.701 133.887 166.841C137.529 165.938 141.104 164.793 144.752 163.91C150.844 162.438 157.789 161.706 163.565 164.662C169.177 167.535 171.688 173.543 172.465 179.387C173.899 190.18 169.499 201.379 161.555 208.937C157.744 212.563 152.948 215.559 147.724 216.784C143.166 217.854 137.313 217.785 133.686 214.471C129.638 210.773 130.591 204.842 133.805 200.94C137.909 195.962 144.86 194.766 151.063 194.645C158.12 194.507 165.17 195.529 172.223 194.893C175.665 194.633 179.043 193.84 182.229 192.546C185.03 191.348 187.585 189.666 189.77 187.583C194.124 183.469 197.06 177.989 198.52 172.29C200.279 165.437 199.895 158.235 198.53 151.352C197.803 147.803 196.866 144.297 195.725 140.853C195.254 139.399 192.894 140.021 193.369 141.484C197.572 154.447 199.915 169.435 191.794 181.47C188.434 186.574 183.198 190.239 177.155 191.718C170.127 193.417 162.752 192.578 155.606 192.325C148.812 192.084 141.351 192.344 135.527 196.193C130.749 199.349 127.408 205.353 128.852 211.022C130.244 216.488 135.646 219.261 141.048 219.688C146.716 220.137 152.294 218.287 157.054 215.393C166.957 209.375 173.541 198.791 174.919 187.57C175.637 181.723 174.906 175.425 172.18 170.118C170.743 167.245 168.507 164.821 165.725 163.122C162.952 161.468 159.748 160.654 156.53 160.366C149.221 159.712 142.197 162.153 135.263 164.02C131.721 165.019 128.09 165.693 124.418 166.033C120.854 166.32 117.27 166.264 113.718 165.864C110.193 165.459 106.719 164.709 103.349 163.626C100.047 162.633 96.8855 161.243 93.9377 159.488C91.3372 157.87 89.0882 155.554 88.9603 152.397C88.8214 148.974 90.596 145.773 92.2838 142.887C95.6182 137.187 99.7371 131.611 100.607 124.938C101.368 119.1 98.953 113.347 94.7824 109.183C92.6923 107.07 90.1759 105.399 87.391 104.276C84.6062 103.152 81.6127 102.6 78.5982 102.653C72.4103 102.826 66.4855 105.443 61.9341 109.462C59.6768 111.457 57.7772 113.804 56.3136 116.406C55.5597 117.749 57.6691 118.95 58.4237 117.605L58.4286 117.609Z" fill="#3F3D56"/>
</g>
<defs>
<clipPath id="clip0">
<rect width="428" height="279" fill="white"/>
</clipPath>
</defs>
</svg>
