<svg width="20" height="20" viewBox="0 0 20 20" fill="none" xmlns="http://www.w3.org/2000/svg">
<g clip-path="url(#clip0)">
<path d="M9.52844 1.56109H10.4715V9.35748H9.52844V1.56109Z" fill="#F6EFEE"/>
<path d="M9.52844 10.6423H10.4715V18.4388H9.52844V10.6423Z" fill="#F6EFEE"/>
<path d="M9.52844 1.56109H10.4715V9.35748H9.52844V1.56109Z" fill="#F6EFEE"/>
<path d="M9.52844 10.6423H10.4715V18.4388H9.52844V10.6423Z" fill="#F6EFEE"/>
<path d="M10.1193 9.21265L15.6313 3.70061L16.298 4.36732L10.786 9.87937L10.1193 9.21265Z" fill="#F6EFEE"/>
<path d="M3.69788 15.6328L9.20992 10.1208L9.87664 10.7875L4.36459 16.2996L3.69788 15.6328Z" fill="#F6EFEE"/>
<path d="M10.1193 9.21265L15.6313 3.70061L16.298 4.36732L10.786 9.87937L10.1193 9.21265Z" fill="#F6EFEE"/>
<path d="M3.69788 15.6328L9.20992 10.1208L9.87664 10.7875L4.36459 16.2996L3.69788 15.6328Z" fill="#F6EFEE"/>
<path d="M10.6426 9.52863H18.4389V10.4717H10.6426V9.52863Z" fill="#F6EFEE"/>
<path d="M1.5614 9.52842H9.35779V10.4715H1.5614V9.52842Z" fill="#F6EFEE"/>
<path d="M10.6426 9.52863H18.4389V10.4717H10.6426V9.52863Z" fill="#F6EFEE"/>
<path d="M1.5614 9.52842H9.35779V10.4715H1.5614V9.52842Z" fill="#F6EFEE"/>
<path d="M10.1187 10.788L10.7854 10.1213L16.2974 15.6334L15.6307 16.3001L10.1187 10.788Z" fill="#F6EFEE"/>
<path d="M3.69873 4.36672L4.36544 3.70001L9.87748 9.21204L9.21077 9.87876L3.69873 4.36672Z" fill="#F6EFEE"/>
<path d="M10.1187 10.788L10.7854 10.1213L16.2974 15.6334L15.6307 16.3001L10.1187 10.788Z" fill="#F6EFEE"/>
<path d="M3.69873 4.36672L4.36544 3.70001L9.87748 9.21204L9.21077 9.87876L3.69873 4.36672Z" fill="#F6EFEE"/>
<path d="M10.0001 13.0165C11.666 13.0165 13.0166 11.666 13.0166 10C13.0166 8.33409 11.666 6.98358 10.0001 6.98358C8.33416 6.98358 6.98364 8.33409 6.98364 10C6.98364 11.666 8.33416 13.0165 10.0001 13.0165Z" fill="#F6EFEE"/>
<path d="M11.5266 1.87185C11.6964 1.02714 11.1493 0.204722 10.3045 0.0349187C9.45984 -0.134884 8.63742 0.412232 8.46761 1.25694C8.29781 2.10164 8.84493 2.92406 9.68963 3.09387C10.5343 3.26367 11.3568 2.71655 11.5266 1.87185Z" fill="#8ECC8E"/>
<path d="M10.0001 19.9996C10.8621 19.9996 11.5608 19.3009 11.5608 18.4389C11.5608 17.577 10.8621 16.8782 10.0001 16.8782C9.1382 16.8782 8.43945 17.577 8.43945 18.4389C8.43945 19.3009 9.1382 19.9996 10.0001 19.9996Z" fill="#8ECC8E"/>
<path d="M15.9673 5.59357C16.8293 5.59357 17.528 4.89483 17.528 4.03289C17.528 3.17094 16.8293 2.4722 15.9673 2.4722C15.1054 2.4722 14.4066 3.17094 14.4066 4.03289C14.4066 4.89483 15.1054 5.59357 15.9673 5.59357Z" fill="#CEA7A1"/>
<path d="M4.03273 17.5278C4.89468 17.5278 5.59342 16.8291 5.59342 15.9671C5.59342 15.1052 4.89468 14.4064 4.03273 14.4064C3.17079 14.4064 2.47205 15.1052 2.47205 15.9671C2.47205 16.8291 3.17079 17.5278 4.03273 17.5278Z" fill="#CEA7A1"/>
<path d="M18.4391 11.5606C19.3011 11.5606 19.9998 10.8618 19.9998 9.99985C19.9998 9.1379 19.3011 8.43915 18.4391 8.43915C17.5772 8.43915 16.8784 9.1379 16.8784 9.99985C16.8784 10.8618 17.5772 11.5606 18.4391 11.5606Z" fill="#E396DF"/>
<path d="M1.8657 11.5262C2.7104 11.3564 3.25752 10.534 3.08772 9.68928C2.91791 8.84458 2.09549 8.29746 1.25079 8.46727C0.406082 8.63707 -0.141034 9.45948 0.028769 10.3042C0.198572 11.1489 1.02099 11.696 1.8657 11.5262Z" fill="#E396DF"/>
<path d="M15.967 17.5278C16.829 17.5278 17.5277 16.8291 17.5277 15.9671C17.5277 15.1052 16.829 14.4064 15.967 14.4064C15.1051 14.4064 14.4064 15.1052 14.4064 15.9671C14.4064 16.8291 15.1051 17.5278 15.967 17.5278Z" fill="#E365C1"/>
<path d="M4.0331 5.5935C4.89504 5.5935 5.59379 4.89475 5.59379 4.03281C5.59379 3.17087 4.89504 2.47212 4.0331 2.47212C3.17116 2.47212 2.47241 3.17087 2.47241 4.03281C2.47241 4.89475 3.17116 5.5935 4.0331 5.5935Z" fill="#E365C1"/>
</g>
<defs>
<clipPath id="clip0">
<rect width="20" height="20" fill="white"/>
</clipPath>
</defs>
</svg>
