<svg width="203" height="118" viewBox="0 0 203 118" fill="none" xmlns="http://www.w3.org/2000/svg">
<g clip-path="url(#clip0)">
<path d="M117.171 94.8006C116.697 94.8006 116.234 94.9361 115.84 95.1898C115.446 95.4436 115.138 95.8043 114.957 96.2264C114.776 96.6484 114.728 97.1128 114.821 97.5608C114.913 98.0089 115.141 98.4204 115.476 98.7434C115.812 99.0664 116.238 99.2864 116.703 99.3755C117.168 99.4646 117.65 99.4189 118.088 99.2441C118.525 99.0693 118.9 98.7732 119.163 98.3934C119.426 98.0136 119.567 97.5671 119.567 97.1102C119.567 96.4977 119.314 95.9102 118.865 95.4771C118.416 95.0439 117.806 94.8006 117.171 94.8006ZM117.171 98.5316C116.879 98.5316 116.594 98.4483 116.352 98.2921C116.109 98.1359 115.92 97.9139 115.808 97.6542C115.697 97.3945 115.668 97.1087 115.725 96.833C115.781 96.5572 115.922 96.304 116.128 96.1052C116.334 95.9064 116.597 95.771 116.883 95.7162C117.169 95.6613 117.466 95.6895 117.735 95.7971C118.004 95.9046 118.235 96.0868 118.397 96.3206C118.559 96.5543 118.645 96.8291 118.645 97.1102V97.1103C118.645 97.4872 118.49 97.8488 118.213 98.1153C117.937 98.3819 117.562 98.5316 117.171 98.5316Z" fill="#E4E4E4"/>
<path d="M107.955 93.0238H117.171V101.816C117.171 102.123 117.044 102.417 116.819 102.634C116.594 102.851 116.289 102.973 115.97 102.973H109.155C108.837 102.973 108.532 102.851 108.307 102.634C108.081 102.417 107.955 102.123 107.955 101.816V93.0238Z" fill="#E4E4E4"/>
<path d="M138.703 103.174H0.186906C0.135537 103.169 0.0880568 103.145 0.0535654 103.108C0.0190741 103.071 0 103.023 0 102.973C0 102.924 0.0190741 102.876 0.0535654 102.838C0.0880568 102.801 0.135537 102.778 0.186906 102.772H138.703C138.754 102.778 138.802 102.801 138.836 102.838C138.871 102.876 138.89 102.924 138.89 102.973C138.89 103.023 138.871 103.071 138.836 103.108C138.802 103.145 138.754 103.169 138.703 103.174Z" fill="#CACACA"/>
<path d="M18.645 99.3773L17.7883 103.46L33.7189 108.589L34.9834 102.563L18.645 99.3773Z" fill="#FFB6B6"/>
<path d="M20.2466 98.6055L18.5593 106.647L18.5593 106.647C18.274 108.006 17.4403 109.2 16.2417 109.967C15.0431 110.733 13.5776 111.009 12.1677 110.735L11.995 110.701L14.7576 97.5353L20.2466 98.6055Z" fill="#2F2E41"/>
<path d="M36.6977 43.1343C42.6717 43.1343 47.5146 38.4661 47.5146 32.7075C47.5146 26.949 42.6717 22.2807 36.6977 22.2807C30.7237 22.2807 25.8809 26.949 25.8809 32.7075C25.8809 38.4661 30.7237 43.1343 36.6977 43.1343Z" fill="#FEB8B8"/>
<path d="M46.8008 23.7122C45.1836 21.1808 42.6521 19.3155 39.6937 18.4754L38.3658 19.4095V18.1965C37.6553 18.0917 36.9362 18.0513 36.2179 18.0759L35.0722 19.0752V18.159C33.3759 18.3621 31.7417 18.9019 30.2726 19.7443C28.8035 20.5866 27.5314 21.7132 26.5365 23.053C24.0484 26.5105 23.6285 31.3205 26.0756 34.8057C26.7473 32.8157 27.5627 30.9484 28.2346 28.9586C28.7625 29.028 29.2976 29.0305 29.8263 28.9661L30.6435 27.1278L30.8719 28.8883C33.4052 28.6756 37.1625 28.2084 39.564 27.7805L39.3304 26.4299L40.7276 27.5521C41.4633 27.3889 41.9002 27.2408 41.8641 27.1276C43.6502 29.9032 45.8361 31.6759 47.622 34.4515C48.3003 30.5378 49.0811 27.2836 46.8008 23.7122Z" fill="#2F2E41"/>
<path d="M40.2172 100.938C55.5993 100.938 68.069 97.576 68.069 93.4285C68.069 89.281 55.5993 85.9188 40.2172 85.9188C24.835 85.9188 12.3654 89.281 12.3654 93.4285C12.3654 97.576 24.835 100.938 40.2172 100.938Z" fill="#2F2E41"/>
<path d="M59.9617 59.5203C59.5898 57.3632 59.2061 55.1648 58.1661 53.2216C57.4825 51.9487 56.3975 50.7358 54.9348 50.4841C54.6467 50.4594 54.3636 50.3962 54.0935 50.2964C53.6649 50.0974 47.9056 46.9282 46.9902 46.3762C46.2042 45.9024 44.9635 45.025 44.3379 45.025C43.7085 45.0116 41.2952 45.553 31.8758 44.8433C30.2914 45.4564 28.7571 46.1835 27.2859 47.0186C27.2556 46.9993 17.5095 52.0442 17.1433 52.0309C16.4499 52.0028 15.8054 52.4308 15.4078 52.9697C15.0104 53.5086 14.824 54.1758 14.6288 54.8208C16.7575 59.3905 18.7052 63.9659 20.8341 68.5356C20.9338 68.7077 20.9867 68.9013 20.9881 69.0984C20.9453 69.303 20.8547 69.4955 20.7232 69.6613C19.6792 71.2778 19.7124 73.3111 19.8265 75.211C19.9406 77.111 20.0817 79.1179 19.2009 80.8209C18.9613 81.2885 18.6497 81.7165 18.4218 82.184C17.8882 83.243 17.6953 86.6298 18.007 87.7676L57.0585 88.846C56.2188 86.6211 59.9617 59.5203 59.9617 59.5203Z" fill="#E365C1"/>
<path d="M11.2533 68.7382C11.1754 69.2815 11.1675 69.8321 11.23 70.3772L11.7897 78.1255C11.8422 78.8558 11.8939 79.5843 11.965 80.3127C12.0993 81.7265 12.2999 83.1289 12.5489 84.5294C12.5546 84.7282 12.6418 84.9168 12.7915 85.0537C12.9412 85.1906 13.1411 85.2647 13.3474 85.2597C15.8112 85.7622 18.3568 85.7421 20.8713 85.6052C24.7083 85.3988 34.5249 85.0082 35.1246 84.2572C35.7244 83.5062 35.3749 82.2915 34.5929 81.6843C33.8109 81.077 20.8565 79.5965 20.8565 79.5965C20.9831 78.6297 21.3649 77.7191 21.7271 76.801C22.3778 75.1728 22.9854 73.4911 22.9971 71.747C23.0088 70.0028 22.3271 68.1689 20.8448 67.1697C19.6255 66.3493 18.0557 66.1972 16.5699 66.2309C15.4888 66.2609 13.621 66.0112 12.6336 66.4187C11.8522 66.7504 11.3993 68.0007 11.2533 68.7382Z" fill="#FBBEBE"/>
<path d="M60.0309 86.2531C60.6795 86.0147 61.3943 86.1009 62.0896 86.1912C64.3276 86.4859 66.5985 86.7882 68.6728 87.6499C69.6467 88.052 70.5738 88.5887 71.2322 89.3787C71.816 90.0902 72.1572 90.9614 72.4806 91.8194L73.2287 93.7945C73.5467 94.5365 73.7659 95.3143 73.8812 96.1094C74.1149 98.4731 72.4379 100.702 70.3286 101.93C68.2192 103.158 65.736 103.595 63.3168 104.053C60.8976 104.511 58.469 105.018 56.0598 105.555C54.9361 105.836 53.7959 106.052 52.6455 106.203C50.0668 106.484 47.3713 106.069 44.921 106.892C43.9471 107.22 42.9908 107.708 41.9806 107.935C41.3092 108.072 40.6303 108.171 39.9472 108.234L35.3098 108.745C34.3668 108.866 33.4175 108.936 32.4663 108.955C30.4408 108.955 28.4482 108.492 26.4813 108.03C26.2723 107.995 26.0734 107.917 25.8974 107.803C25.5859 107.566 25.5177 107.148 25.4729 106.769C25.2742 105.09 25.1004 103.41 24.9515 101.728C24.9048 101.181 24.8698 100.59 25.1795 100.13C25.569 99.5672 26.3287 99.3904 27.0221 99.2814C29.9622 98.8177 32.9407 98.6185 35.9192 98.6862C37.0507 97.5955 38.9166 97.5899 40.3989 96.9965C40.9442 96.7551 41.4719 96.4785 41.9786 96.1685C44.6299 94.6774 47.5927 93.775 50.6515 93.527C51.2505 93.5094 51.8457 93.4275 52.4259 93.283C53.5728 92.9394 54.6191 92.0043 55.7973 92.2335C55.9433 91.8449 56.0446 91.3247 56.3812 91.0581C56.548 90.921 56.7551 90.8292 56.909 90.6826C57.2343 90.3654 57.2635 89.8659 57.2147 89.4229C57.1659 88.9798 57.0568 88.5256 57.1757 88.0936C57.2251 87.9301 57.2979 87.774 57.3919 87.6298C57.9742 86.6585 58.8565 86.1592 60.0309 86.2531Z" fill="#2F2E41"/>
<path d="M14.5162 54.9599C14.3265 55.1514 14.1794 55.3782 14.0839 55.6265C12.5096 59.0467 11.5797 62.7098 11.3378 66.4442C11.342 66.6263 11.2985 66.8065 11.2112 66.9681C11.1251 67.0756 11.0293 67.1755 10.9249 67.2666C10.8338 67.3706 10.7649 67.4909 10.7221 67.6206C10.6793 67.7503 10.6634 67.8869 10.6754 68.0225C10.6873 68.1581 10.7268 68.2901 10.7917 68.411C10.8566 68.5319 10.9455 68.6393 11.0534 68.7271C11.0711 68.7415 11.0893 68.7553 11.108 68.7686C11.4293 68.1856 12.1986 67.9951 12.8824 67.9444C16.1564 67.6947 19.3544 69.1629 22.6382 69.0522C22.4065 68.2805 22.0733 67.539 21.8844 66.758C21.0488 63.2903 23.1329 59.5149 21.8552 56.1749C21.5999 55.5065 21.1735 54.8494 20.5016 54.5565C20.2234 54.4483 19.9322 54.374 19.6349 54.3354C18.8052 54.1908 17.1534 53.5731 16.3511 53.821C16.055 53.913 15.9382 54.1814 15.6928 54.3436C15.3199 54.5732 14.8253 54.6576 14.5162 54.9599Z" fill="#E365C1"/>
<path d="M59.9851 66.4187C58.9977 66.0112 57.1299 66.2609 56.0488 66.2309C54.563 66.1972 52.9932 66.3493 51.7739 67.1697C50.2916 68.1689 49.6099 70.0028 49.6216 71.747C49.6333 73.4911 50.2409 75.1728 50.8916 76.801C51.2538 77.7191 51.6356 78.6297 51.7622 79.5965C51.7622 79.5965 38.8078 81.077 38.0258 81.6843C37.2438 82.2915 36.8943 83.5063 37.4941 84.2572C38.0938 85.0082 56.8075 85.7622 59.2713 85.2597C59.4776 85.2647 59.6775 85.1906 59.8272 85.0537C59.9769 84.9168 60.0642 84.7283 60.0698 84.5294C60.3188 83.129 60.5194 81.7265 60.6537 80.3128C60.7248 79.5843 60.7765 78.8558 60.8291 78.1255L61.3888 70.3772C61.4512 69.8321 61.4433 69.2815 61.3654 68.7382C61.2194 68.0007 60.7665 66.7504 59.9851 66.4187Z" fill="#FBBEBE"/>
<path d="M56.9259 54.3436C56.6804 54.1814 56.5637 53.913 56.2675 53.821C55.4653 53.5731 53.8135 54.1908 52.9838 54.3354C52.6865 54.374 52.3953 54.4483 52.1171 54.5565C51.4452 54.8494 51.0188 55.5065 50.7635 56.1749C49.4858 59.5149 51.5699 63.2903 50.7343 66.758C50.5454 67.539 50.2121 68.2805 49.9805 69.0522C53.2642 69.1629 56.4623 67.6947 59.7363 67.9444C60.4201 67.9951 61.1894 68.1856 61.5107 68.7686C61.5293 68.7553 61.5475 68.7415 61.5652 68.7271C61.6731 68.6393 61.7621 68.5319 61.827 68.411C61.8918 68.2901 61.9314 68.1581 61.9433 68.0225C61.9552 67.8869 61.9394 67.7503 61.8965 67.6206C61.8537 67.4909 61.7848 67.3706 61.6938 67.2666C61.5894 67.1755 61.4936 67.0756 61.4075 66.9681C61.3202 66.8065 61.2767 66.6263 61.2809 66.4442C61.039 62.7098 60.1091 59.0467 58.5347 55.6265C58.4392 55.3782 58.2921 55.1514 58.1024 54.9599C57.7934 54.6576 57.2988 54.5732 56.9259 54.3436Z" fill="#E365C1"/>
<path d="M62.4024 105.206L61.8331 109.335L45.0382 109.184L45.8786 103.089L62.4024 105.206Z" fill="#FFB6B6"/>
<path d="M66.7003 104.685L64.8644 118L64.6897 117.978C63.2638 117.795 61.9716 117.074 61.0973 115.973C60.223 114.872 59.8382 113.481 60.0276 112.106L60.0276 112.106L61.149 103.974L66.7003 104.685Z" fill="#2F2E41"/>
<path d="M22.8907 88.3428C22.8907 88.5306 22.585 88.3428 22.557 88.1418C22.3429 86.623 21.0923 85.3707 19.6355 84.7624C18.1787 84.1541 16.5191 84.1222 14.9416 84.2667C12.5557 84.4844 9.87753 85.365 9.00502 87.5147C8.79857 88.0172 6.86463 92.4918 7.05335 93.498C7.56176 96.1828 9.46651 98.4789 11.7746 100.069C14.0826 101.659 16.7794 102.609 19.4695 103.466C26.5818 105.727 33.8789 107.407 41.2836 108.488C42.4833 108.663 43.6949 108.824 44.8439 109.196C45.8722 109.528 46.8344 110.026 47.8395 110.417C50.1768 111.321 52.6913 111.644 55.1822 111.962C55.6068 112.014 56.0937 112.052 56.4074 111.774C56.8125 111.412 56.6785 110.781 56.5631 110.261C56.1404 108.283 56.4951 106.225 57.5585 104.486C57.9755 103.81 58.5177 103.117 58.4389 102.335C58.3455 101.423 57.4027 100.777 56.4639 100.63C55.5251 100.484 54.5708 100.7 53.6278 100.818C53.3046 100.889 52.9661 100.857 52.6638 100.726C52.5236 100.635 52.3966 100.526 52.2859 100.403C51.6365 99.7992 50.8054 99.409 49.9117 99.2887C49.0181 99.1683 48.1078 99.3238 47.3115 99.7329C46.9628 99.9206 46.4357 99.5019 46.0728 99.3443L41.9768 97.5569C37.2712 95.505 32.5423 93.4434 27.5639 92.1442C27.1667 92.0689 26.7892 91.9176 26.4537 91.6992C26.2064 91.5114 26.0291 91.2569 25.8012 91.0477C25.3045 90.5952 24.6126 90.4149 24.0172 90.0939C23.4218 89.7728 22.7543 88.9867 22.8907 88.3428Z" fill="#2F2E41"/>
<path d="M33.4941 85.6297C35.1065 85.6297 36.4135 84.3698 36.4135 82.8155C36.4135 81.2613 35.1065 80.0013 33.4941 80.0013C31.8817 80.0013 30.5746 81.2613 30.5746 82.8155C30.5746 84.3698 31.8817 85.6297 33.4941 85.6297Z" fill="#FBBEBE"/>
<path d="M39.9587 85.6297C41.571 85.6297 42.8781 84.3698 42.8781 82.8155C42.8781 81.2613 41.571 80.0013 39.9587 80.0013C38.3463 80.0013 37.0392 81.2613 37.0392 82.8155C37.0392 84.3698 38.3463 85.6297 39.9587 85.6297Z" fill="#FBBEBE"/>
<path d="M57.9798 89.1569H17.8706C17.4023 89.1564 16.9533 88.9769 16.6222 88.6577C16.2911 88.3385 16.1048 87.9058 16.1042 87.4544V63.9988C16.1048 63.5474 16.2911 63.1147 16.6222 62.7955C16.9533 62.4764 17.4023 62.2968 17.8706 62.2963H57.9798C58.4481 62.2968 58.897 62.4764 59.2282 62.7955C59.5593 63.1147 59.7456 63.5474 59.7461 63.9988V87.4544C59.7456 87.9058 59.5593 88.3385 59.2282 88.6577C58.897 88.9769 58.4481 89.1564 57.9798 89.1569Z" fill="#3F3D56"/>
<path d="M37.8279 76.8531C38.4733 76.8531 38.9966 76.3488 38.9966 75.7266C38.9966 75.1045 38.4733 74.6002 37.8279 74.6002C37.1825 74.6002 36.6593 75.1045 36.6593 75.7266C36.6593 76.3488 37.1825 76.8531 37.8279 76.8531Z" fill="white"/>
<path d="M181.014 42.3037H128.903C128.626 42.3034 128.361 42.1975 128.166 42.009C127.97 41.8206 127.86 41.5651 127.86 41.2987V31.8309H128.277V41.2987C128.277 41.4586 128.343 41.6118 128.46 41.7249C128.578 41.838 128.737 41.9015 128.903 41.9017H181.014C181.18 41.9015 181.339 41.838 181.456 41.7249C181.573 41.6118 181.639 41.4586 181.639 41.2987V31.7648H182.057V41.2987C182.056 41.5651 181.946 41.8206 181.751 42.009C181.555 42.1975 181.29 42.3034 181.014 42.3037Z" fill="#3F3D56"/>
<path d="M199.904 31.6299H77.449V32.0319H199.904V31.6299Z" fill="#3F3D56"/>
<path d="M77.4578 35.2574C79.439 35.2574 81.045 33.7093 81.045 31.7995C81.045 29.8898 79.439 28.3417 77.4578 28.3417C75.4767 28.3417 73.8706 29.8898 73.8706 31.7995C73.8706 33.7093 75.4767 35.2574 77.4578 35.2574Z" fill="#E365C1"/>
<path d="M113.911 35.2574C115.892 35.2574 117.498 33.7093 117.498 31.7995C117.498 29.8898 115.892 28.3417 113.911 28.3417C111.929 28.3417 110.323 29.8898 110.323 31.7995C110.323 33.7093 111.929 35.2574 113.911 35.2574Z" fill="#E365C1"/>
<path d="M138.649 45.4208C140.631 45.4208 142.237 43.8727 142.237 41.963C142.237 40.0533 140.631 38.5052 138.649 38.5052C136.668 38.5052 135.062 40.0533 135.062 41.963C135.062 43.8727 136.668 45.4208 138.649 45.4208Z" fill="#3F3D56"/>
<path d="M157.457 45.4208C159.438 45.4208 161.044 43.8727 161.044 41.963C161.044 40.0533 159.438 38.5052 157.457 38.5052C155.475 38.5052 153.869 40.0533 153.869 41.963C153.869 43.8727 155.475 45.4208 157.457 45.4208Z" fill="#CCCCCC"/>
<path d="M148.343 35.2574C150.324 35.2574 151.93 33.7093 151.93 31.7995C151.93 29.8898 150.324 28.3417 148.343 28.3417C146.362 28.3417 144.756 29.8898 144.756 31.7995C144.756 33.7093 146.362 35.2574 148.343 35.2574Z" fill="#E365C1"/>
<path d="M199.413 35.2574C201.394 35.2574 203 33.7093 203 31.7995C203 29.8898 201.394 28.3417 199.413 28.3417C197.432 28.3417 195.826 29.8898 195.826 31.7995C195.826 33.7093 197.432 35.2574 199.413 35.2574Z" fill="#E365C1"/>
<path d="M181.848 35.2574C183.829 35.2574 185.435 33.7093 185.435 31.7995C185.435 29.8898 183.829 28.3417 181.848 28.3417C179.867 28.3417 178.261 29.8898 178.261 31.7995C178.261 33.7093 179.867 35.2574 181.848 35.2574Z" fill="#E365C1"/>
<path d="M141.896 0H135.243V4.42025H141.896V0Z" fill="#3F3D56"/>
<path d="M80.8109 0H74.1573V4.42025H80.8109V0Z" fill="#E365C1"/>
<path d="M103.348 0H96.6942V4.42025H103.348V0Z" fill="#CCCCCC"/>
<path d="M88.5816 32.0319C88.5263 32.0319 88.4732 32.0108 88.4341 31.9731C88.395 31.9354 88.373 31.8842 88.373 31.8309V21.9084C88.3734 21.642 88.4833 21.3865 88.6788 21.1981C88.8743 21.0097 89.1393 20.9037 89.4157 20.9034H99.5661C99.6214 20.9034 99.6744 20.9245 99.7136 20.9622C99.7527 20.9999 99.7746 21.0511 99.7746 21.1044C99.7746 21.1577 99.7527 21.2088 99.7136 21.2465C99.6744 21.2842 99.6214 21.3054 99.5661 21.3054H89.4157C89.2499 21.3056 89.0908 21.3692 88.9736 21.4822C88.8563 21.5953 88.7903 21.7486 88.7901 21.9084V31.8309C88.7901 31.8842 88.7681 31.9354 88.729 31.9731C88.6899 32.0108 88.6369 32.0319 88.5816 32.0319Z" fill="#3F3D56"/>
<path d="M100.043 24.4871C102.024 24.4871 103.63 22.9389 103.63 21.0292C103.63 19.1195 102.024 17.5714 100.043 17.5714C98.062 17.5714 96.4559 19.1195 96.4559 21.0292C96.4559 22.9389 98.062 24.4871 100.043 24.4871Z" fill="#E6E6E6"/>
<path d="M168.867 31.8309H168.45V21.9084C168.451 21.642 168.56 21.3865 168.756 21.1981C168.951 21.0097 169.216 20.9037 169.493 20.9034H179.643V21.3054H169.493C169.327 21.3056 169.168 21.3692 169.051 21.4822C168.933 21.5953 168.867 21.7486 168.867 21.9084V31.8309Z" fill="#3F3D56"/>
<path d="M180.12 24.4871C182.101 24.4871 183.707 22.9389 183.707 21.0292C183.707 19.1195 182.101 17.5714 180.12 17.5714C178.139 17.5714 176.533 19.1195 176.533 21.0292C176.533 22.9389 178.139 24.4871 180.12 24.4871Z" fill="#E6E6E6"/>
</g>
<defs>
<clipPath id="clip0">
<rect width="203" height="118" fill="white"/>
</clipPath>
</defs>
</svg>
