<svg width="414" height="290" viewBox="0 0 414 290" fill="none" xmlns="http://www.w3.org/2000/svg">
<path opacity="0.1" d="M280.886 11.3745C268.13 1.39679 248.102 -0.629302 229.876 0.156399C172.62 2.65536 120.939 26.9139 76.2357 54.3552C60.0528 64.2892 44.1185 74.9944 33.6131 88.675C12.2293 116.527 18.5699 155.107 48.3083 178.048C58.4241 185.855 70.6867 191.838 83.2807 197.145C105.659 206.577 129.824 214.147 155.231 216.304C173.354 217.839 191.7 216.591 209.71 214.445C260.045 208.458 309.439 195.199 350.843 172.545C369.003 162.604 386.122 150.247 393.607 134.162C401.091 118.077 396.3 97.7142 377.739 88.184C370.068 84.2482 360.897 82.4695 351.921 80.7999C338.705 78.3409 325.278 75.9183 313.355 70.924C301.039 65.7624 286.452 55.7811 288.905 44.3703C291.541 32.1046 293.613 21.3267 280.886 11.3745Z" fill="#8ECC8E"/>
<path opacity="0.1" d="M341.859 58.5274C334.649 58.5274 328.805 53.3974 328.805 47.0693C328.805 40.7411 334.649 35.6112 341.859 35.6112C349.068 35.6112 354.913 40.7411 354.913 47.0693C354.913 53.3974 349.068 58.5274 341.859 58.5274Z" fill="#8ECC8E"/>
<path opacity="0.1" d="M369.206 26.8812C364.743 26.8812 361.125 23.7054 361.125 19.788C361.125 15.8706 364.743 12.6949 369.206 12.6949C373.669 12.6949 377.287 15.8706 377.287 19.788C377.287 23.7054 373.669 26.8812 369.206 26.8812Z" fill="#8ECC8E"/>
<path opacity="0.1" d="M30.4304 45.978C27.684 45.978 25.4575 44.0238 25.4575 41.613C25.4575 39.2023 27.684 37.248 30.4304 37.248C33.1769 37.248 35.4034 39.2023 35.4034 41.613C35.4034 44.0238 33.1769 45.978 30.4304 45.978Z" fill="#8ECC8E"/>
<path opacity="0.1" d="M128.087 290C108.807 290 93.177 288.632 93.177 286.944C93.177 285.257 108.807 283.889 128.087 283.889C147.368 283.889 162.997 285.257 162.997 286.944C162.997 288.632 147.368 290 128.087 290Z" fill="#8ECC8E"/>
<path d="M325.315 177.259L325.469 184.516L326.695 243.338L337.197 264.923L373.387 265.287V180.602L335.618 177.976L325.315 177.259Z" fill="#5F5D7E"/>
<path opacity="0.1" d="M325.315 177.259L325.469 184.516L326.695 243.338L337.197 264.923L373.387 265.287V180.602L335.618 177.976L325.315 177.259Z" fill="black"/>
<path d="M325.315 177.259L325.469 184.516L326.695 243.338L337.197 264.923L334.432 184.654L334.441 184.603L335.618 177.976L325.315 177.259Z" fill="#5F5D7E"/>
<path opacity="0.1" d="M335.618 177.976L325.315 177.259L325.469 184.516L334.441 184.603L373.387 184.985V180.602L335.618 177.976Z" fill="black"/>
<path d="M0 180.602V264.799H8.42506L42.1335 243.218V178.227L12.018 175.742L10.1697 176.488L8.42506 177.194L0 180.602Z" fill="#5F5D7E"/>
<path opacity="0.1" d="M0 176.488H8.42508V264.799H0V176.488Z" fill="black"/>
<path opacity="0.1" d="M0 176.488V181.33L8.42506 181.413L42.1335 181.741V178.227L12.018 175.742L10.1697 176.488L8.42506 177.194V176.488H0Z" fill="black"/>
<path d="M0 173.742V180.602L414 184.654V175.924L375.045 169.013L36.0541 166.831L0 173.742Z" fill="#5F5D7E"/>
<path opacity="0.1" d="M0 173.742V180.602L414 184.654V175.924L0 173.742Z" fill="black"/>
<path d="M126.977 70.9204H253.075C258.298 70.9204 262.532 74.6368 262.532 79.2212V161.447C262.532 166.031 258.298 169.748 253.075 169.748H126.977C121.754 169.748 117.52 166.031 117.52 161.447V79.2212C117.52 74.6368 121.754 70.9204 126.977 70.9204Z" fill="#474157"/>
<path d="M128.974 79.8359H250.862V160.454H128.974V79.8359Z" fill="#EDEDF4"/>
<path d="M255.619 121.896C254.516 121.896 253.622 121.111 253.622 120.143C253.622 119.175 254.516 118.39 255.619 118.39C256.722 118.39 257.617 119.175 257.617 120.143C257.617 121.111 256.722 121.896 255.619 121.896Z" fill="#E6E8EC"/>
<path d="M123.574 123.224C121.755 123.224 120.28 121.929 120.28 120.332C120.28 118.735 121.755 117.44 123.574 117.44C125.394 117.44 126.869 118.735 126.869 120.332C126.869 121.929 125.394 123.224 123.574 123.224Z" fill="#E6E8EC"/>
<path d="M197.265 120.456L181.679 112.141C181.356 111.983 180.991 111.903 180.621 111.907C180.251 111.911 179.888 111.999 179.569 112.164C179.25 112.328 178.985 112.563 178.801 112.845C178.616 113.126 178.519 113.445 178.517 113.77V129.943C178.519 130.267 178.616 130.586 178.801 130.868C178.985 131.15 179.25 131.384 179.569 131.549C179.888 131.713 180.251 131.802 180.621 131.806C180.991 131.81 181.356 131.73 181.679 131.572L197.265 123.722C197.596 123.56 197.871 123.322 198.062 123.035C198.253 122.748 198.354 122.422 198.354 122.089C198.354 121.757 198.253 121.43 198.062 121.143C197.871 120.856 197.596 120.619 197.265 120.456ZM208.985 121.856C208.985 118.043 207.697 114.316 205.283 111.146C202.87 107.975 199.44 105.504 195.426 104.045C191.413 102.586 186.997 102.204 182.736 102.948C178.476 103.692 174.562 105.528 171.49 108.224C168.419 110.92 166.327 114.356 165.479 118.095C164.632 121.835 165.067 125.711 166.729 129.234C168.391 132.757 171.207 135.768 174.819 137.886C178.431 140.004 182.677 141.135 187.021 141.135C192.846 141.135 198.433 139.104 202.552 135.489C206.671 131.873 208.985 126.969 208.985 121.856ZM169.309 121.856C169.309 118.782 170.348 115.776 172.294 113.219C174.24 110.662 177.007 108.67 180.243 107.493C183.479 106.316 187.041 106.009 190.477 106.608C193.912 107.208 197.068 108.689 199.545 110.863C202.022 113.037 203.709 115.808 204.393 118.823C205.076 121.839 204.725 124.965 203.385 127.806C202.044 130.647 199.774 133.075 196.861 134.783C193.949 136.491 190.524 137.403 187.021 137.403C184.695 137.404 182.392 137.002 180.242 136.221C178.093 135.44 176.14 134.294 174.496 132.851C172.851 131.407 171.546 129.693 170.656 127.806C169.766 125.92 169.309 123.898 169.309 121.856Z" fill="#8ECC8E"/>
<path d="M80.8605 185.2C80.9434 184.755 81.1013 184.324 81.3288 183.919C81.0138 182.977 80.8108 182.399 80.8108 182.399C80.8108 182.399 80.8108 182.261 80.8605 182.035C81.1076 180.702 81.8966 179.493 83.0814 178.632C84.2663 177.77 85.7667 177.315 87.3046 177.35C89.7911 177.39 94.5072 177.536 99.7371 178.052C99.4387 176.215 99.0823 174.018 98.7094 171.756L98.0256 171.821C97.8681 171.821 97.7023 171.821 97.5365 171.843H97.3169C96.7718 171.873 96.2328 171.728 95.8001 171.436C95.6941 171.345 95.6153 171.233 95.5708 171.109C95.5262 170.985 95.5173 170.854 95.5448 170.726C95.5723 170.599 95.6353 170.479 95.7284 170.378C95.8214 170.277 95.9415 170.198 96.0778 170.148C95.4666 170.201 94.8498 170.12 94.2833 169.912C93.7168 169.704 93.2183 169.375 92.833 168.955C92.4813 168.523 92.2922 168.005 92.2922 167.474C92.2922 166.943 92.4813 166.426 92.833 165.994C93.7074 164.903 95.5598 164.175 95.6593 162.891C95.7131 162.164 95.1578 161.509 94.7227 160.865C93.674 159.258 93.2549 157.393 93.5296 155.556C93.8043 153.72 94.7577 152.013 96.2436 150.698C96.8268 150.19 97.4411 149.711 98.0836 149.261C98.9953 146.322 99.9484 143.696 100.23 143.612C100.595 143.507 101.221 142.816 101.817 142.223C101.763 141.723 101.773 141.219 101.846 140.72C102.286 138.174 105.162 136.355 106.745 134.107C108.328 131.86 108.614 129.106 108.208 126.531C107.802 123.955 106.778 121.464 105.945 118.95C105.323 117.084 104.805 115.102 105.502 113.25C105.995 111.93 107.068 110.787 108.175 109.714C110.831 107.135 113.894 104.72 117.673 103.167C120.3 102.08 123.178 101.54 126.081 101.588H126.11L126.566 101.61L126.89 101.628L127.213 101.657L127.557 101.686C127.909 101.726 128.257 101.774 128.605 101.836C131.13 101.343 133.707 101.089 136.293 101.079H136.628C137.395 101.039 138.159 101.197 138.825 101.534C139.745 102.097 139.861 103.109 140.138 103.989C140.637 105.462 141.689 106.744 143.122 107.626C144.113 108.252 145.277 108.718 146.222 109.372C147.167 110.027 147.904 111.009 147.652 111.977C147.44 112.788 146.578 113.392 145.58 113.759C145.7 113.89 145.824 114.018 145.94 114.152C145.745 114.221 145.526 114.283 145.348 114.334C144.104 114.658 142.766 114.698 141.506 114.992C141.159 115.074 140.819 115.175 140.486 115.294C141.607 117.144 142.192 119.208 142.19 121.303C142.185 123.63 141.466 125.913 140.108 127.912C138.75 129.91 136.804 131.55 134.473 132.66C134.473 132.783 134.473 132.903 134.473 133.024C134.345 136.821 134.672 141.441 136.885 142.223C139.098 143.005 141.216 143.889 142.521 144.46L142.936 144.653C143.28 144.514 143.624 144.369 143.959 144.216C143.959 144.216 145.721 144.034 145.414 145.213C145.414 145.213 150.739 144.485 153.661 146.482C156.582 148.479 161.377 152.648 162.318 153.735C163.259 154.823 170.532 157.202 170.532 157.202C170.532 157.202 168.24 154.39 169.23 150.945C169.23 150.945 170.324 146.791 169.802 145.125C169.28 143.459 167.925 137.276 167.925 137.276C167.925 137.276 167.734 130.75 171.791 127.756C175.848 124.763 178.671 122.3 177.104 125.21C176.419 126.544 175.653 127.845 174.808 129.106C174.808 129.106 184.51 131.128 181.066 134.286C177.622 137.443 176.686 137.447 176.686 137.447C176.686 137.447 177.834 145.242 178.045 146.693C178.256 148.145 180.117 159.203 180.117 159.203C180.117 159.203 180.221 164.462 179.176 165.277C179.176 165.277 178.492 168.664 174.17 168.551C174.17 168.551 165.932 168.369 163.636 167.554C161.34 166.74 153.416 162.385 152.579 162.658C152.518 162.68 152.463 162.712 152.417 162.753C152.373 162.786 152.331 162.823 152.293 162.862C153.122 164.473 155.086 169.944 154.249 172.632C154.249 172.632 154.979 180.246 150.598 182.694C150.598 182.694 144.237 192.122 146.636 197.196C146.827 197.607 146.997 197.986 147.154 198.353C150.797 195.701 156.354 193.261 164.842 191.911C165.708 191.773 166.57 191.605 167.423 191.424C169.835 190.911 176.47 190.441 179.628 199.648C180.364 201.788 181.301 203.871 182.429 205.875C183.673 208.083 185.053 211.248 185.082 214.387C185.152 218.789 182.562 223.15 173.163 224.75C173.059 228.024 172.633 231.924 171.356 234.728C168.75 240.439 164.576 249.685 164.576 249.685C164.576 249.685 159.57 259.114 159.255 262.919C159.052 265.41 158.754 268.677 158.961 270.921C158.961 271.059 158.986 271.19 159.003 271.321C159.432 271.728 159.901 272.102 160.403 272.438C161.133 272.802 163.532 275.068 163.532 275.61C163.527 276.129 163.474 276.648 163.375 277.16C164.51 278.029 165.132 278.978 165.132 279.924C165.132 284.842 149.231 288.829 129.616 288.829C110.002 288.829 94.1052 284.827 94.1052 279.924C94.1052 275.435 107.366 271.725 124.598 271.114C121.005 269.855 117.814 268.535 116.492 267.477C116.208 267.283 115.992 267.023 115.866 266.727L119.202 259.929C119.202 259.929 119.463 259.98 119.849 260.078L120.081 259.772C121.564 257.79 124.42 253.84 124.42 252.766C124.42 252.37 125.174 249.835 126.268 246.361V235.212C115.385 236.667 101.362 234.688 101.362 234.688L101.299 234.659H101.026V234.528C99.1404 233.611 89.7083 228.763 86.911 222.331C86.0821 220.455 87.114 217.766 89.1654 214.893C87.7315 211.768 84.1924 203.697 84.5447 200.477C84.5447 200.306 84.5695 200.114 84.5695 199.924C84.5361 199.596 84.5223 199.265 84.5281 198.935C84.1137 194.206 80.7983 185.567 80.7983 185.567C80.7983 185.567 80.8191 185.418 80.8605 185.2ZM151.311 164.19C150.557 165.354 149.749 166.841 149.43 167.445C149.43 167.445 150.532 165.663 151.29 164.19H151.311ZM150.524 266.076L150.602 266.102V265.738C150.647 264.789 150.621 263.839 150.524 262.893C150.512 262.384 150.634 261.878 150.88 261.416C152.157 258.6 153.011 255.649 153.42 252.639C153.835 249.467 154.179 246.008 153.963 245.128C153.64 243.778 153.375 233.557 153.777 228.519L147.362 229.785L139.902 243.134C139.902 243.134 135.103 249.653 133.615 254.796V259.947C134.051 261.481 134.811 262.93 135.857 264.217C136.848 265.407 137.814 266.611 138.709 267.855C138.982 268.24 139.285 268.637 139.587 269.008C139.687 269.008 144.589 269.259 145.422 270.066C145.936 270.565 146.831 271.35 146.98 272.14L147.192 272.169C148.153 269.655 150.503 266.076 150.503 266.076H150.524Z" fill="url(#paint0_linear)"/>
<path opacity="0.1" d="M118.966 261.402L120.624 266.131L127.669 271.496L138.029 274.108C138.029 274.108 142.898 271.769 141.241 271.314C140.781 271.187 140.234 270.725 139.678 270.121C140.259 271.976 135.646 269.586 135.646 269.586C135.646 269.586 123.732 262.129 122.489 261.311C121.673 260.836 120.778 260.477 119.836 260.245C119.318 260.955 118.966 261.402 118.966 261.402Z" fill="black"/>
<path d="M118.966 261.402L120.624 266.131L127.669 271.496L138.029 274.108C138.029 274.108 142.898 271.769 141.241 271.314C140.781 271.187 140.234 270.725 139.678 270.121C139.178 269.561 138.716 268.975 138.294 268.368C137.407 267.116 136.446 265.909 135.464 264.73C134.031 262.94 133.132 260.862 132.849 258.688C132.124 253.687 139.479 243.593 139.479 243.593L152.844 219.494L134.196 221.495C134.196 221.495 124.146 251.777 124.146 253.232C124.146 254.323 121.312 258.27 119.836 260.26C119.318 260.955 118.966 261.402 118.966 261.402Z" fill="#FDC2CC"/>
<path d="M129.31 289.4C109.828 289.4 94.0348 285.402 94.0348 280.47C94.0348 275.538 109.828 271.54 129.31 271.54C148.792 271.54 164.585 275.538 164.585 280.47C164.585 285.402 148.792 289.4 129.31 289.4Z" fill="#5F5D7E"/>
<path d="M115.651 267.222C115.777 267.518 115.991 267.778 116.272 267.975C118.833 270.037 128.41 273.104 134.328 274.77C135.879 275.245 137.461 275.64 139.065 275.952C140.516 276.043 143.52 275.225 145.592 274.108C147.664 272.991 145.799 271.405 144.962 270.587C144.125 269.768 139.16 269.525 139.16 269.525C141.543 273.006 135.642 269.95 135.642 269.95C135.642 269.95 123.728 262.493 122.484 261.675C121.241 260.856 118.962 260.402 118.962 260.402L115.651 267.222Z" fill="#8ECC8E"/>
<path opacity="0.3" d="M115.651 267.222C115.777 267.518 115.991 267.778 116.272 267.975C118.833 270.037 128.41 273.104 134.328 274.77C135.879 275.245 137.461 275.64 139.065 275.952C140.516 276.043 143.52 275.225 145.592 274.108C147.664 272.991 145.799 271.405 144.962 270.587C144.125 269.768 139.16 269.525 139.16 269.525C141.543 273.006 135.642 269.95 135.642 269.95C135.642 269.95 123.728 262.493 122.484 261.675C121.241 260.856 118.962 260.402 118.962 260.402L115.651 267.222Z" fill="black"/>
<path opacity="0.1" d="M116.272 267.982C118.833 270.045 128.41 273.111 134.328 274.777C128.966 270.79 119.973 268.706 116.272 267.982Z" fill="black"/>
<path opacity="0.1" d="M129.31 279.378C125.412 279.378 122.252 278.579 122.252 277.592C122.252 276.606 125.412 275.806 129.31 275.806C133.207 275.806 136.367 276.606 136.367 277.592C136.367 278.579 133.207 279.378 129.31 279.378Z" fill="black"/>
<path d="M125.982 230.487H133.234V277.592H125.982V230.487Z" fill="#5F5D7E"/>
<path opacity="0.1" d="M125.982 232.822V238.278C127.432 237.885 130.744 236.23 133.234 234.928V230.483H131.722L125.982 232.822Z" fill="black"/>
<path d="M143.068 209.979C143.068 209.979 119.123 204.57 113.164 200.521C107.205 196.472 83.803 215.522 86.8945 222.71C89.986 229.898 101.242 235.103 101.242 235.103C101.242 235.103 132.368 239.548 137.669 230.276C142.969 221.004 143.068 209.979 143.068 209.979Z" fill="#474157"/>
<path opacity="0.1" d="M143.068 209.979C143.068 209.979 119.123 204.57 113.164 200.521C107.205 196.472 83.803 215.522 86.8945 222.71C89.986 229.898 101.242 235.103 101.242 235.103C101.242 235.103 132.368 239.548 137.669 230.276C142.969 221.004 143.068 209.979 143.068 209.979Z" fill="black"/>
<path d="M145.14 207.796C145.14 207.796 121.196 202.387 115.236 198.339C109.277 194.29 85.8751 213.34 88.9666 220.527C92.0581 227.715 103.314 232.92 103.314 232.92C103.314 232.92 134.44 237.365 139.741 228.093C145.041 218.821 145.14 207.796 145.14 207.796Z" fill="#474157"/>
<path d="M167.349 158.195L169.939 157.369C169.939 157.369 167.66 154.55 168.642 151.095C168.642 151.095 169.732 146.926 169.214 145.238C168.696 143.55 167.349 137.363 167.349 137.363C167.349 137.363 167.158 130.816 171.19 127.815C175.223 124.814 178.02 122.358 176.466 125.268C175.787 126.607 175.026 127.912 174.187 129.179C174.187 129.179 183.822 131.205 180.403 134.377C176.984 137.549 176.052 137.545 176.052 137.545C176.052 137.545 177.191 145.366 177.398 146.821C177.606 148.276 179.47 159.37 179.47 159.37C179.47 159.37 179.574 164.644 178.538 165.463C178.308 166.448 177.675 167.324 176.759 167.927C175.843 168.531 174.706 168.818 173.565 168.737C172.827 168.726 164.033 160.196 167.349 158.195Z" fill="#FDC2CC"/>
<path d="M104.772 141.463V146.555L110.781 148.276L121.017 154.889L123.732 156.642L135.853 152.368L143.52 145.275C143.52 145.275 143.147 145.096 142.501 144.802L142.086 144.609C140.789 144.038 138.746 143.154 136.487 142.365C134.229 141.575 133.964 136.948 134.092 133.136V132.773C134.196 130.099 134.506 127.913 134.506 127.913C134.506 127.913 133.243 127.702 131.403 127.462C126.301 126.796 116.782 125.898 117.619 128.64C117.864 129.573 117.864 130.542 117.619 131.474C117.594 131.576 117.569 131.681 117.54 131.783C116.678 135.09 114.01 138.553 114.01 138.553L105.721 141.172L105.489 141.244L104.772 141.463Z" fill="#FDC2CC"/>
<path d="M104.772 143.008V141.463C104.121 141.364 103.455 141.364 102.804 141.463C102.079 141.644 100.703 143.554 100.081 143.736C99.4594 143.918 95.6551 156.376 96.0695 157.468C96.4839 158.559 100.4 183.196 100.4 183.196L108.295 190.834L109.849 169.828L104.772 157.369V143.008Z" fill="#FDC2CC"/>
<path d="M145.696 200.208C145.696 200.208 152.911 201.572 151.995 203.573C151.079 205.574 147.043 205.664 147.043 205.664L145.696 200.208Z" fill="#FDC2CC"/>
<path d="M135.646 159.814L141.137 170.199L147.664 174.382L148.804 167.918C148.804 167.918 151.008 163.644 151.957 162.92C152.003 162.879 152.058 162.847 152.119 162.826C152.948 162.553 160.822 166.918 163.101 167.736C165.38 168.555 173.565 168.737 173.565 168.737L169.939 157.369C169.939 157.369 162.687 155.005 161.754 153.914C160.822 152.822 156.056 148.639 153.155 146.639C150.254 144.638 144.962 145.366 144.962 145.366L144.879 145.395L143.52 145.911L139.583 154.368L135.646 159.814Z" fill="#FDC2CC"/>
<path d="M150.047 263.41C150.145 264.358 150.171 265.311 150.126 266.262C150.097 267.276 150.047 268.139 150.047 268.139L152.43 272.504C152.43 272.504 160.615 274.868 159.268 273.868C158.799 273.522 158.559 272.624 158.439 271.434C158.236 269.186 158.53 265.909 158.733 263.41C159.044 259.59 164.017 250.133 164.017 250.133C164.017 250.133 168.161 240.857 170.751 235.128C173.341 229.399 172.409 219.032 172.409 219.032C172.409 219.032 171.994 211.212 170.13 208.847C168.265 206.483 161.012 205.664 161.012 205.664L157.61 215.569C157.61 215.569 154.813 224.845 153.777 226.209C152.741 227.573 153.052 243.851 153.466 245.579C153.677 246.463 153.321 249.944 152.923 253.116C152.517 256.133 151.67 259.091 150.403 261.918C150.156 262.385 150.034 262.895 150.047 263.41Z" fill="#FDC2CC"/>
<path opacity="0.1" d="M150.047 268.139L152.43 272.504C152.43 272.504 160.615 274.868 159.268 273.868C158.799 273.522 158.559 272.624 158.439 271.434C158.145 271.176 157.83 270.892 157.506 270.601C155.424 268.706 152.901 267.226 150.109 266.262C150.097 267.277 150.047 268.139 150.047 268.139Z" fill="black"/>
<path d="M146.309 274.635C146.307 274.652 146.307 274.669 146.309 274.686C146.723 276.414 153.561 278.778 153.561 278.778C153.561 278.778 157.913 279.415 160.399 279.96C160.589 280.005 160.787 280.021 160.983 280.008C162.902 279.88 162.989 276.639 162.989 276.141C162.989 275.643 160.606 273.322 159.881 272.958C159.061 272.361 158.291 271.713 157.577 271.02C155.45 269.086 152.875 267.577 150.026 266.593C150.026 266.593 145.977 272.842 146.309 274.635Z" fill="#8ECC8E"/>
<path opacity="0.3" d="M146.309 274.635C146.307 274.652 146.307 274.669 146.309 274.686C146.723 276.414 153.561 278.778 153.561 278.778C153.561 278.778 157.913 279.415 160.399 279.96C160.589 280.005 160.787 280.021 160.983 280.008C162.902 279.88 162.989 276.639 162.989 276.141C162.989 275.643 160.606 273.322 159.881 272.958C159.048 272.354 158.267 271.696 157.544 270.99C155.462 269.086 152.938 267.598 150.142 266.625L150.026 266.585C150.026 266.585 145.977 272.842 146.309 274.635Z" fill="black"/>
<path opacity="0.1" d="M146.309 274.635C146.307 274.652 146.307 274.669 146.309 274.686C146.723 276.414 153.561 278.778 153.561 278.778C153.561 278.778 157.913 279.415 160.399 279.96C160.589 280.005 160.787 280.021 160.983 280.008C158.729 278.651 153.263 275.395 152.525 275.323C151.788 275.25 148.153 274.333 146.309 274.635Z" fill="black"/>
<path opacity="0.1" d="M117.524 131.783C120.085 133.635 122.439 133.369 126.015 133.369C128.601 133.369 131.962 134.166 134.08 133.144C134.167 130.303 134.494 127.913 134.494 127.913C134.494 127.913 116.467 124.912 117.607 128.64C117.867 129.679 117.839 130.757 117.524 131.783Z" fill="black"/>
<path d="M112.128 121.38C112.128 124.829 113.689 128.136 116.467 130.575C119.246 133.014 123.014 134.384 126.943 134.384C127.325 134.384 127.706 134.384 128.079 134.348C130.952 134.153 133.698 133.227 135.981 131.684C138.263 130.14 139.984 128.046 140.931 125.657C141.878 123.269 142.012 120.689 141.314 118.235C140.617 115.781 139.12 113.559 137.005 111.84C134.891 110.122 132.252 108.982 129.41 108.56C126.569 108.138 123.65 108.453 121.009 109.465C118.368 110.478 116.121 112.144 114.543 114.26C112.965 116.376 112.124 118.851 112.124 121.38H112.128Z" fill="#FDC2CC"/>
<path opacity="0.1" d="M139.583 154.376L135.646 159.832L141.137 170.217L147.664 174.4L148.804 167.918C148.804 167.918 151.008 163.644 151.957 162.92C151.684 162.335 151.497 162.065 151.497 162.28C151.497 163.189 148.949 167.282 148.949 167.282C141.075 164.917 143.52 155.732 143.52 155.732C143.52 155.732 144.498 147.548 144.879 145.395L143.52 145.911L139.583 154.376Z" fill="black"/>
<path opacity="0.1" d="M104.772 141.463V146.555L110.781 148.276L121.017 154.889L123.732 156.642L135.853 152.368L143.52 145.275C143.52 145.275 143.147 145.096 142.501 144.802L142.086 144.609C136.753 146.737 130.98 147.519 126.856 147.799C124.96 147.94 123.056 147.978 121.154 147.912C105.543 145.729 105.079 142.419 105.468 141.244L104.772 141.463Z" fill="black"/>
<path d="M100.317 223.936C104.225 225.617 108.237 227.105 112.335 228.392C119.484 230.665 135.232 227.664 137.2 227.209C139.169 226.755 154.295 221.48 160.097 219.48C165.898 217.479 167.349 219.116 168.696 218.934C170.043 218.752 170.975 216.479 171.182 215.842C171.389 215.206 167.452 209.658 165.277 206.839C163.101 204.02 156.574 204.566 155.642 204.384C154.709 204.202 148.182 204.384 148.182 204.384C148.182 204.384 148.597 202.565 146.214 197.473C143.831 192.38 150.151 182.923 150.151 182.923C154.502 180.467 153.777 172.829 153.777 172.829C154.813 169.464 151.498 161.734 151.498 162.644C151.498 163.553 148.949 167.645 148.949 167.645C141.075 165.281 143.52 156.096 143.52 156.096C143.52 156.096 144.66 146.548 144.962 145.366C145.265 144.183 143.52 144.365 143.52 144.365C143.183 144.518 142.843 144.664 142.501 144.802C137.047 147.057 131.079 147.879 126.844 148.163C124.948 148.304 123.043 148.342 121.142 148.276C102.215 145.595 105.568 141.321 105.692 141.168L104.772 141.455C97.9344 145.82 100.007 160.279 100.007 160.279L102.568 171.072L104.47 179.111C104.47 179.111 97.7355 214.94 97.1139 216.759C96.4923 218.578 100.317 223.936 100.317 223.936Z" fill="#8ECC8E"/>
<path opacity="0.1" d="M150.772 207.567C151.187 207.84 155.849 216.297 152.43 218.661C149.011 221.026 150.772 207.567 150.772 207.567Z" fill="black"/>
<path opacity="0.1" d="M147.457 208.756C147.353 209.029 137.718 222.488 132.434 223.579L147.457 208.756Z" fill="black"/>
<path opacity="0.1" d="M124.246 102.254L125.787 102.541C125.362 102.404 124.928 102.291 124.486 102.203L124.246 102.254Z" fill="black"/>
<path opacity="0.1" d="M101.03 160.279L103.931 171.065C105.411 170.472 106.771 169.672 107.959 168.697C108.883 167.925 109.712 167.041 110.901 166.536C112.431 165.885 114.275 165.972 116.011 165.917C118.18 165.846 120.329 165.523 122.401 164.957C123.003 164.825 123.568 164.584 124.059 164.251C125.045 163.488 124.979 162.255 124.888 161.178C124.708 159.085 124.687 156.984 124.826 154.889C124.851 154.496 124.884 154.103 124.921 153.71C125.087 151.953 125.626 149.916 127.673 149.163C128.725 148.799 129.981 148.828 130.988 148.388C131.134 148.324 131.272 148.249 131.402 148.163C132.894 147.246 133.031 145.409 132.973 143.863C132.885 141.739 132.8 139.613 132.72 137.487C132.645 136.438 132.671 135.385 132.799 134.34C132.899 133.646 133.117 132.97 133.446 132.332C134.345 130.645 136.218 129.237 136.554 127.455C136.572 127.372 136.585 127.288 136.591 127.204C136.765 125.61 135.621 124.126 135.219 122.558C134.415 119.405 137.117 115.949 141.092 115.043C142.335 114.76 143.669 114.705 144.908 114.381C145.106 114.329 145.301 114.269 145.493 114.199C142.492 110.686 137.349 108.379 131.51 108.379C122.256 108.379 114.751 114.199 114.751 121.384C114.751 125.458 117.167 129.091 120.943 131.478C120.918 131.579 120.889 131.685 120.856 131.787C119.882 135.093 116.861 138.556 116.861 138.556L107.478 141.175L106.434 141.466C98.6844 145.828 101.03 160.279 101.03 160.279Z" fill="black"/>
<path opacity="0.1" d="M95.9356 170.726C96.0272 170.726 96.1147 170.708 96.2021 170.694C96.1116 170.685 96.02 170.696 95.9356 170.726Z" fill="black"/>
<path d="M127.979 101.894C130.572 101.365 133.225 101.093 135.886 101.083C136.753 101.083 137.681 101.123 138.373 101.541C139.289 102.105 139.405 103.123 139.678 104.004C140.173 105.473 141.217 106.755 142.641 107.641C143.624 108.27 144.78 108.732 145.721 109.394C146.661 110.056 147.378 111.038 147.142 112.006C146.906 112.974 145.667 113.719 144.423 114.028C143.18 114.338 141.858 114.392 140.607 114.691C136.632 115.596 133.935 119.056 134.739 122.202C135.153 123.77 136.284 125.254 136.11 126.847C135.907 128.749 133.906 130.215 132.965 131.98C132.107 133.587 132.165 135.392 132.231 137.13L132.484 143.51C132.55 145.191 132.385 147.213 130.495 148.035C129.484 148.472 128.224 148.425 127.18 148.81C125.132 149.56 124.594 151.6 124.428 153.354C124.191 155.838 124.18 158.335 124.395 160.821C124.49 161.913 124.556 163.131 123.566 163.895C123.076 164.229 122.511 164.47 121.908 164.601C119.836 165.167 117.687 165.49 115.518 165.561C113.777 165.619 111.937 165.532 110.408 166.179C109.219 166.685 108.39 167.573 107.466 168.34C104.816 170.468 101.439 171.766 97.8599 172.032C97.0932 172.09 96.2229 172.076 95.6883 171.643C95.1537 171.21 95.4687 170.275 96.2312 170.33C95.5834 170.425 94.9184 170.367 94.3048 170.161C93.6913 169.955 93.1517 169.609 92.7418 169.158C92.3932 168.723 92.2061 168.204 92.2061 167.673C92.2061 167.141 92.3932 166.622 92.7418 166.187C93.608 165.095 95.448 164.368 95.5474 163.073C95.6013 162.345 95.0501 161.687 94.6191 161.04C93.5801 159.427 93.1654 157.563 93.4374 155.726C93.7094 153.889 94.6535 152.18 96.1276 150.855C98.0712 149.09 100.985 147.752 101.664 145.489C102.116 143.976 101.432 142.386 101.693 140.848C102.108 138.302 104.979 136.483 106.558 134.213C108.137 131.943 108.415 129.197 108.013 126.614C107.611 124.032 106.592 121.522 105.763 119.012C105.145 117.139 104.636 115.149 105.323 113.29C105.817 111.97 106.878 110.824 107.98 109.743C110.62 107.157 113.657 104.735 117.412 103.196C121.167 101.657 125.742 101.061 129.728 102.199" fill="#474157"/>
<path opacity="0.1" d="M127.979 101.894C130.572 101.365 133.225 101.093 135.886 101.083C136.753 101.083 137.681 101.123 138.373 101.541C139.289 102.105 139.405 103.123 139.678 104.004C140.173 105.473 141.217 106.755 142.641 107.641C143.624 108.27 144.78 108.732 145.721 109.394C146.661 110.056 147.378 111.038 147.142 112.006C146.906 112.974 145.667 113.719 144.423 114.028C143.18 114.338 141.858 114.392 140.607 114.691C136.632 115.596 133.935 119.056 134.739 122.202C135.153 123.77 136.284 125.254 136.11 126.847C135.907 128.749 133.906 130.215 132.965 131.98C132.107 133.587 132.165 135.392 132.231 137.13L132.484 143.51C132.55 145.191 132.385 147.213 130.495 148.035C129.484 148.472 128.224 148.425 127.18 148.81C125.132 149.56 124.594 151.6 124.428 153.354C124.191 155.838 124.18 158.335 124.395 160.821C124.49 161.913 124.556 163.131 123.566 163.895C123.076 164.229 122.511 164.47 121.908 164.601C119.836 165.167 117.687 165.49 115.518 165.561C113.777 165.619 111.937 165.532 110.408 166.179C109.219 166.685 108.39 167.573 107.466 168.34C104.816 170.468 101.439 171.766 97.8599 172.032C97.0932 172.09 96.2229 172.076 95.6883 171.643C95.1537 171.21 95.4687 170.275 96.2312 170.33C95.5834 170.425 94.9184 170.367 94.3048 170.161C93.6913 169.955 93.1517 169.609 92.7418 169.158C92.3932 168.723 92.2061 168.204 92.2061 167.673C92.2061 167.141 92.3932 166.622 92.7418 166.187C93.608 165.095 95.448 164.368 95.5474 163.073C95.6013 162.345 95.0501 161.687 94.6191 161.04C93.5801 159.427 93.1654 157.563 93.4374 155.726C93.7094 153.889 94.6535 152.18 96.1276 150.855C98.0712 149.09 100.985 147.752 101.664 145.489C102.116 143.976 101.432 142.386 101.693 140.848C102.108 138.302 104.979 136.483 106.558 134.213C108.137 131.943 108.415 129.197 108.013 126.614C107.611 124.032 106.592 121.522 105.763 119.012C105.145 117.139 104.636 115.149 105.323 113.29C105.817 111.97 106.878 110.824 107.98 109.743C110.62 107.157 113.657 104.735 117.412 103.196C121.167 101.657 125.742 101.061 129.728 102.199" fill="black"/>
<path opacity="0.1" d="M150.151 182.93C150.151 182.93 146.628 184.112 142.898 180.839C139.169 177.565 150.151 182.93 150.151 182.93Z" fill="black"/>
<g opacity="0.1">
<path opacity="0.1" d="M126.421 101.838C125.738 101.719 125.045 101.643 124.349 101.61C125.317 101.558 126.288 101.585 127.25 101.69L126.421 101.838Z" fill="black"/>
<path opacity="0.1" d="M105.643 168.34C106.571 167.572 107.396 166.685 108.589 166.179C110.114 165.532 111.958 165.619 113.699 165.561C115.868 165.491 118.017 165.168 120.089 164.601C120.692 164.47 121.256 164.229 121.747 163.895C122.733 163.131 122.663 161.902 122.576 160.821C122.361 158.335 122.372 155.838 122.609 153.353C122.779 151.6 123.313 149.56 125.365 148.81C126.413 148.425 127.669 148.472 128.68 148.035C130.57 147.213 130.752 145.191 130.673 143.51C130.588 141.384 130.503 139.258 130.42 137.134C130.35 135.392 130.296 133.587 131.154 131.98C132.095 130.215 134.096 128.753 134.299 126.847C134.469 125.257 133.325 123.77 132.923 122.202C132.119 119.048 134.821 115.596 138.796 114.69C140.039 114.407 141.373 114.349 142.612 114.028C143.852 113.708 145.053 113.017 145.31 112.028C145.567 111.038 144.834 110.078 143.893 109.412C142.952 108.747 141.796 108.288 140.81 107.659C139.385 106.774 138.342 105.492 137.851 104.022C137.573 103.141 137.436 102.127 136.545 101.559C136.035 101.281 135.447 101.13 134.846 101.123C135.215 101.123 135.584 101.104 135.949 101.104C136.815 101.104 137.743 101.144 138.435 101.559C139.351 102.127 139.467 103.141 139.741 104.022C140.235 105.492 141.279 106.773 142.704 107.659C143.686 108.288 144.842 108.75 145.783 109.412C146.723 110.074 147.44 111.057 147.204 112.028C146.968 112.999 145.741 113.705 144.502 114.028C143.263 114.352 141.937 114.392 140.685 114.69C136.711 115.596 134.013 119.055 134.817 122.202C135.232 123.77 136.363 125.257 136.189 126.847C135.986 128.753 133.984 130.215 133.044 131.98C132.186 133.587 132.24 135.392 132.31 137.134C132.396 139.258 132.48 141.384 132.563 143.51C132.629 145.191 132.463 147.213 130.574 148.035C129.563 148.472 128.303 148.425 127.258 148.81C125.211 149.56 124.672 151.6 124.507 153.353C124.27 155.838 124.259 158.335 124.474 160.821C124.569 161.913 124.635 163.131 123.645 163.895C123.154 164.229 122.59 164.47 121.987 164.601C119.915 165.169 117.766 165.492 115.597 165.561C113.856 165.619 112.016 165.532 110.487 166.179C109.298 166.685 108.469 167.572 107.541 168.34C104.893 170.469 101.516 171.767 97.9386 172.032C97.4758 172.08 97.0073 172.064 96.5503 171.985C99.9428 171.641 103.125 170.365 105.643 168.34Z" fill="black"/>
</g>
<path opacity="0.1" d="M169.939 157.369C169.939 157.369 173.254 160.039 172.769 161.131C172.285 162.222 169.939 157.369 169.939 157.369Z" fill="black"/>
<path d="M166.864 191.689C169.255 191.176 175.848 190.703 178.986 199.939C179.716 202.084 180.646 204.173 181.766 206.185C184.775 211.608 188.662 222.761 171.568 225.216L130.541 233.4C130.541 233.4 108.577 235.765 107.126 234.855C105.676 233.946 105.883 231.945 105.883 231.945C105.883 231.945 130.126 231.945 134.892 225.398C139.658 218.85 139.865 209.939 139.865 209.939C139.865 209.939 139.268 196.178 164.315 192.18C165.144 192.042 166.014 191.871 166.864 191.689Z" fill="#474157"/>
<path opacity="0.1" d="M166.864 191.751C169.255 191.238 175.848 190.765 178.986 200.005C179.716 202.15 180.646 204.239 181.766 206.25C184.775 211.67 188.662 222.823 171.568 225.278L130.541 233.462C130.541 233.462 108.577 235.827 107.126 234.917C105.676 234.008 105.883 232.007 105.883 232.007C105.883 232.007 130.126 232.007 134.892 225.46C139.658 218.912 139.865 210 139.865 210C139.865 210 139.268 196.24 164.315 192.242C165.144 192.104 166.014 191.926 166.864 191.751Z" fill="black"/>
<path d="M80.8605 182.279C81.0981 180.948 81.8782 179.737 83.0558 178.873C84.2334 178.009 85.7285 177.549 87.2632 177.579C93.1645 177.674 111.328 178.365 119.766 183.203C119.766 183.203 126.189 186.84 128.054 186.84C129.919 186.84 155.198 205.755 117.694 222.67C117.694 222.67 97.5946 227.69 89.7207 215.904C89.7207 215.904 84.1261 203.246 84.5405 198.862C84.9549 194.479 80.8108 182.657 80.8108 182.657C80.8108 182.657 80.8191 182.515 80.8605 182.279Z" fill="#474157"/>
<path opacity="0.1" d="M80.8605 185.465C81.333 182.919 84.093 181.079 87.2632 181.126C93.1645 181.213 111.328 181.853 119.766 186.317C119.766 186.317 126.189 189.674 128.054 189.674C129.919 189.674 155.198 207.134 117.694 222.75C117.694 222.75 97.5946 227.384 89.7207 216.504C89.7207 216.504 84.1261 204.817 84.5405 200.772C84.9549 196.727 80.8108 185.815 80.8108 185.815C80.8108 185.815 80.8191 185.684 80.8605 185.465Z" fill="black"/>
<path d="M100.91 222.666H107.541V235.059H100.91V222.666Z" fill="#5F5D7E"/>
<path opacity="0.1" d="M343.45 172.272C333.142 172.272 324.785 171.802 324.785 171.221C324.785 170.64 333.142 170.17 343.45 170.17C353.759 170.17 362.115 170.64 362.115 171.221C362.115 171.802 353.759 172.272 343.45 172.272Z" fill="black"/>
<path d="M327.785 130.677C328.183 131.156 328.501 131.681 328.73 132.238C328.788 132.376 328.846 132.529 328.904 132.678C329.009 132.634 329.118 132.602 329.232 132.58C329.715 132.474 330.214 132.436 330.711 132.467C330.711 132.3 330.686 132.103 330.682 131.936C330.62 130.019 330.877 127.345 332.961 128.477C334.959 129.568 333.533 131.387 332.244 132.554L331.913 132.838C333.09 133.566 333.313 135.286 333.508 137.072C333.703 138.858 335.431 140.815 336.579 141.925C336.695 142.037 336.799 142.139 336.902 142.234C337.366 141.908 337.903 141.672 338.478 141.542C339.053 141.413 339.653 141.392 340.238 141.481C340.284 141.324 340.338 141.161 340.392 140.986C341.32 138.047 343.247 132.951 345.704 131.834L345.381 131.47C344.337 130.27 343.16 128.491 344.896 128.033C346.633 127.575 346.79 129.579 346.695 131.077C346.695 131.267 346.662 131.441 346.645 131.609C346.992 131.623 347.332 131.7 347.644 131.834C347.956 131.968 348.234 132.156 348.46 132.387L348.73 132.111C350.139 130.656 352.721 128.338 353.504 130.088C354.233 131.718 351.958 133.831 350.358 135.057L350.259 135.133C351.332 138.964 346.658 142.092 344.121 143.445L343.794 143.62C347.275 147.221 349.426 153.968 349.426 153.968L339.679 155.496C339.679 155.496 333.214 150.604 334.043 146.006H333.977C327.516 144.871 326.049 138.825 327.056 135.235L326.94 135.195C325.764 134.771 324.733 134.087 323.948 133.209C322.141 131.001 325.937 128.513 327.785 130.677Z" fill="#8ECC8E"/>
<path opacity="0.1" d="M327.785 130.677C328.183 131.156 328.501 131.681 328.73 132.238C328.788 132.376 328.846 132.529 328.904 132.678C329.009 132.634 329.118 132.602 329.232 132.58C329.715 132.474 330.214 132.436 330.711 132.467C330.711 132.3 330.686 132.103 330.682 131.936C330.62 130.019 330.877 127.345 332.961 128.477C334.959 129.568 333.533 131.387 332.244 132.554L331.913 132.838C333.09 133.566 333.313 135.286 333.508 137.072C333.703 138.858 335.431 140.815 336.579 141.925C336.695 142.037 336.799 142.139 336.902 142.234C337.366 141.908 337.903 141.672 338.478 141.542C339.053 141.413 339.653 141.392 340.238 141.481C340.284 141.324 340.338 141.161 340.392 140.986C341.32 138.047 343.247 132.951 345.704 131.834L345.381 131.47C344.337 130.27 343.16 128.491 344.896 128.033C346.633 127.575 346.79 129.579 346.695 131.077C346.695 131.267 346.662 131.441 346.645 131.609C346.992 131.623 347.332 131.7 347.644 131.834C347.956 131.968 348.234 132.156 348.46 132.387L348.73 132.111C350.139 130.656 352.721 128.338 353.504 130.088C354.233 131.718 351.958 133.831 350.358 135.057L350.259 135.133C351.332 138.964 346.658 142.092 344.121 143.445L343.794 143.62C347.275 147.221 349.426 153.968 349.426 153.968L339.679 155.496C339.679 155.496 333.214 150.604 334.043 146.006H333.977C327.516 144.871 326.049 138.825 327.056 135.235L326.94 135.195C325.764 134.771 324.733 134.087 323.948 133.209C322.141 131.001 325.937 128.513 327.785 130.677Z" fill="black"/>
<path d="M347.188 133.144L348.315 136.072C348.315 136.072 348.949 135.679 349.749 135.061C351.349 133.835 353.624 131.721 352.895 130.092C352.111 128.342 349.53 130.652 348.121 132.114C347.565 132.693 347.188 133.144 347.188 133.144Z" fill="#8ECC8E"/>
<path d="M344.784 131.474C345.131 131.873 345.502 132.255 345.895 132.62C345.992 132.11 346.06 131.597 346.098 131.081C346.193 129.582 346.011 127.593 344.3 128.036C342.588 128.48 343.757 130.274 344.784 131.474Z" fill="#8ECC8E"/>
<path d="M330.081 131.936C330.114 132.9 330.222 133.667 330.222 133.667C330.724 133.325 331.199 132.953 331.643 132.554C332.932 131.379 334.358 129.568 332.36 128.477C330.28 127.345 330.023 130.019 330.081 131.936Z" fill="#8ECC8E"/>
<path d="M323.351 133.198C324.139 134.076 325.173 134.759 326.351 135.181C326.678 135.305 327.013 135.41 327.354 135.497L328.697 133.842C328.555 133.295 328.369 132.758 328.142 132.234C327.912 131.677 327.594 131.152 327.197 130.674C325.332 128.513 321.544 131.001 323.351 133.198Z" fill="#8ECC8E"/>
<path opacity="0.1" d="M348.133 132.114C347.565 132.693 347.188 133.144 347.188 133.144L348.315 136.072C348.315 136.072 348.949 135.679 349.749 135.061C349.571 134.123 349.129 133.239 348.465 132.489C348.365 132.354 348.245 132.227 348.133 132.114Z" fill="black"/>
<path opacity="0.1" d="M344.785 131.474C345.131 131.873 345.502 132.255 345.895 132.62C345.992 132.11 346.06 131.597 346.098 131.081C345.624 131.088 345.165 131.225 344.785 131.474Z" fill="black"/>
<path d="M339.198 143.099L342.033 144.191C342.033 144.191 342.65 143.929 343.541 143.441C346.521 141.83 352.509 137.781 348.494 133.009C344.478 128.237 341.129 136.799 339.812 140.982C339.393 142.237 339.198 143.099 339.198 143.099Z" fill="#8ECC8E"/>
<path opacity="0.1" d="M331.648 132.554C331.236 132.18 330.677 131.958 330.085 131.936C330.118 132.9 330.226 133.667 330.226 133.667C330.728 133.325 331.203 132.953 331.648 132.554Z" fill="black"/>
<path opacity="0.1" d="M326.351 135.181C326.678 135.305 327.013 135.41 327.354 135.497L328.697 133.842C328.555 133.295 328.369 132.758 328.142 132.234C327.267 132.685 326.629 133.787 326.351 135.181Z" fill="black"/>
<path d="M333.396 145.995L333.873 146.068C343.375 147.337 337.006 142.838 337.006 142.838C337.006 142.838 336.592 142.492 335.999 141.925C334.851 140.815 333.127 138.869 332.928 137.072C332.63 134.369 332.286 131.834 328.651 132.58C325.067 133.311 324.383 144.413 333.396 145.995Z" fill="#8ECC8E"/>
<path d="M333.558 166.758H351.714V170.948H333.558V166.758Z" fill="#474157"/>
<path d="M330.877 153.139H354.598V167.762H330.877V153.139Z" fill="#474157"/>
<path opacity="0.1" d="M333.732 166.758H351.888V170.948H333.732V166.758Z" fill="black"/>
<path opacity="0.1" d="M330.951 153.143H354.672V167.765H330.951V153.143Z" fill="black"/>
<path d="M332.364 166.758H350.52V170.948H332.364V166.758Z" fill="#474157"/>
<path opacity="0.1" d="M339.795 141.001C339.381 142.252 339.182 143.114 339.182 143.114L342.016 144.205C342.016 144.205 342.634 143.943 343.525 143.456C342.414 142.208 341.163 141.273 339.795 141.001Z" fill="black"/>
<path opacity="0.1" d="M333.396 145.995L333.873 146.068C343.376 147.337 337.006 142.837 337.006 142.837C337.006 142.837 336.592 142.492 335.999 141.924C334.225 143.183 333.475 144.576 333.396 145.995Z" fill="black"/>
<path d="M348.829 153.968C348.829 153.968 343.508 137.236 336.045 142.401C328.581 147.566 339.082 155.496 339.082 155.496L348.829 153.968Z" fill="#8ECC8E"/>
<path opacity="0.1" d="M346.144 136.155C345.814 136.155 345.547 135.921 345.547 135.632C345.547 135.342 345.814 135.108 346.144 135.108C346.473 135.108 346.741 135.342 346.741 135.632C346.741 135.921 346.473 136.155 346.144 136.155Z" fill="black"/>
<path opacity="0.1" d="M346.194 138.603C345.864 138.603 345.597 138.369 345.597 138.08C345.597 137.79 345.864 137.556 346.194 137.556C346.523 137.556 346.79 137.79 346.79 138.08C346.79 138.369 346.523 138.603 346.194 138.603Z" fill="black"/>
<path opacity="0.1" d="M328.883 136.636C328.554 136.636 328.287 136.401 328.287 136.112C328.287 135.822 328.554 135.588 328.883 135.588C329.213 135.588 329.48 135.822 329.48 136.112C329.48 136.401 329.213 136.636 328.883 136.636Z" fill="black"/>
<path opacity="0.1" d="M342.812 149.167C342.482 149.167 342.215 148.932 342.215 148.643C342.215 148.354 342.482 148.119 342.812 148.119C343.141 148.119 343.409 148.354 343.409 148.643C343.409 148.932 343.141 149.167 342.812 149.167Z" fill="black"/>
<path opacity="0.1" d="M330.127 140.699C329.797 140.699 329.53 140.464 329.53 140.175C329.53 139.886 329.797 139.651 330.127 139.651C330.456 139.651 330.723 139.886 330.723 140.175C330.723 140.464 330.456 140.699 330.127 140.699Z" fill="black"/>
<path opacity="0.1" d="M336.293 146.111C335.964 146.111 335.696 145.877 335.696 145.587C335.696 145.298 335.964 145.064 336.293 145.064C336.623 145.064 336.89 145.298 336.89 145.587C336.89 145.877 336.623 146.111 336.293 146.111Z" fill="black"/>
<path opacity="0.1" d="M344.105 137.203C343.775 137.203 343.508 136.969 343.508 136.679C343.508 136.39 343.775 136.155 344.105 136.155C344.434 136.155 344.702 136.39 344.702 136.679C344.702 136.969 344.434 137.203 344.105 137.203Z" fill="black"/>
<path opacity="0.1" d="M330.524 138.211C330.195 138.211 329.928 137.976 329.928 137.687C329.928 137.398 330.195 137.163 330.524 137.163C330.854 137.163 331.121 137.398 331.121 137.687C331.121 137.976 330.854 138.211 330.524 138.211Z" fill="black"/>
<path opacity="0.1" d="M332.563 142.27C332.234 142.27 331.967 142.036 331.967 141.746C331.967 141.457 332.234 141.222 332.563 141.222C332.893 141.222 333.16 141.457 333.16 141.746C333.16 142.036 332.893 142.27 332.563 142.27Z" fill="black"/>
<path opacity="0.1" d="M338.833 148.774C338.504 148.774 338.237 148.539 338.237 148.25C338.237 147.961 338.504 147.726 338.833 147.726C339.163 147.726 339.43 147.961 339.43 148.25C339.43 148.539 339.163 148.774 338.833 148.774Z" fill="black"/>
<path opacity="0.1" d="M340.126 146.199C339.797 146.199 339.53 145.964 339.53 145.675C339.53 145.386 339.797 145.151 340.126 145.151C340.456 145.151 340.723 145.386 340.723 145.675C340.723 145.964 340.456 146.199 340.126 146.199Z" fill="black"/>
<path opacity="0.1" d="M343.21 140.393C342.88 140.393 342.613 140.159 342.613 139.869C342.613 139.58 342.88 139.345 343.21 139.345C343.539 139.345 343.806 139.58 343.806 139.869C343.806 140.159 343.539 140.393 343.21 140.393Z" fill="black"/>
<path opacity="0.1" d="M332.364 166.758H350.52V168.289H332.364V166.758Z" fill="black"/>
<path d="M329.683 153.139H353.404V167.762H329.683V153.139Z" fill="#474157"/>
<path opacity="0.1" d="M338.038 151.131C337.708 151.131 337.441 150.897 337.441 150.607C337.441 150.318 337.708 150.083 338.038 150.083C338.367 150.083 338.635 150.318 338.635 150.607C338.635 150.897 338.367 151.131 338.038 151.131Z" fill="black"/>
<path opacity="0.1" d="M341.618 151.786C341.289 151.786 341.022 151.551 341.022 151.262C341.022 150.973 341.289 150.738 341.618 150.738C341.948 150.738 342.215 150.973 342.215 151.262C342.215 151.551 341.948 151.786 341.618 151.786Z" fill="black"/>
<path d="M284.748 209.022C284.748 209.022 281.793 212.416 286.112 217.537C290.43 222.659 293.986 226.995 292.56 230.181C292.56 230.181 286.037 220.666 280.728 220.535C275.42 220.404 278.909 214.747 284.748 209.022Z" fill="#8ECC8E"/>
<path opacity="0.1" d="M284.748 209.022C284.49 209.349 284.286 209.707 284.143 210.084C278.967 215.424 276.207 220.407 281.184 220.535C285.822 220.662 291.383 227.937 292.717 229.756C292.672 229.898 292.618 230.039 292.56 230.174C292.56 230.174 286.037 220.658 280.728 220.527C275.42 220.396 278.909 214.747 284.748 209.022Z" fill="black"/>
<path d="M279.253 213.351C279.253 214.544 279.406 215.511 279.593 215.511C279.779 215.511 279.933 214.544 279.933 213.351C279.933 212.157 279.742 212.718 279.556 212.718C279.369 212.718 279.253 212.154 279.253 213.351Z" fill="#FFD037"/>
<path d="M277.368 214.776C278.561 215.348 279.601 215.693 279.692 215.548C279.784 215.402 278.888 214.82 277.691 214.249C276.493 213.678 276.97 214.093 276.862 214.249C276.754 214.405 276.17 214.205 277.368 214.776Z" fill="#FFD037"/>
<path d="M300.368 209.022C300.368 209.022 303.322 212.416 299.004 217.537C294.686 222.659 291.13 226.995 292.56 230.181C292.56 230.181 299.079 220.666 304.387 220.535C309.696 220.404 306.207 214.747 300.368 209.022Z" fill="#8ECC8E"/>
<path opacity="0.1" d="M300.368 209.022C300.626 209.349 300.83 209.707 300.973 210.084C306.149 215.424 308.909 220.407 303.932 220.535C299.294 220.662 293.733 227.937 292.398 229.756C292.444 229.898 292.498 230.037 292.56 230.174C292.56 230.174 299.079 220.662 304.387 220.538C309.696 220.415 306.207 214.747 300.368 209.022Z" fill="black"/>
<path d="M305.863 213.351C305.863 214.544 305.709 215.511 305.523 215.511C305.336 215.511 305.183 214.544 305.183 213.351C305.183 212.157 305.374 212.718 305.56 212.718C305.747 212.718 305.863 212.154 305.863 213.351Z" fill="#FFD037"/>
<path d="M307.748 214.776C306.555 215.348 305.515 215.693 305.423 215.548C305.332 215.402 306.227 214.82 307.425 214.249C308.623 213.678 308.146 214.093 308.254 214.249C308.362 214.405 308.946 214.205 307.748 214.776Z" fill="#FFD037"/>
<path opacity="0.1" d="M292.56 256.149C275.486 256.149 261.645 254.285 261.645 251.984C261.645 249.684 275.486 247.82 292.56 247.82C309.634 247.82 323.475 249.684 323.475 251.984C323.475 254.285 309.634 256.149 292.56 256.149Z" fill="#8ECC8E"/>
<path d="M276.646 225.613L276.796 226.671L277.003 228.17L277.086 228.792L277.297 230.29L277.384 230.916L277.591 232.411L279.937 249.435C280.148 250.955 282.979 252.137 286.389 252.137H298.706C302.121 252.137 304.922 250.955 305.154 249.435L307.525 232.411L307.732 230.916L307.819 230.29L308.03 228.792L308.113 228.17L308.32 226.671L308.469 225.613C308.59 224.754 307.06 224.027 305.125 224.027H279.987C278.06 224.027 276.526 224.754 276.646 225.613Z" fill="#65617D"/>
<path d="M276.796 226.671L277.003 228.166H308.113L308.32 226.671H276.796Z" fill="#9D9CB5"/>
<path d="M277.086 228.792L277.293 230.29H307.819L308.03 228.792H277.086Z" fill="#9D9CB5"/>
<path d="M277.384 230.912L277.591 232.411H307.525L307.732 230.912H277.384Z" fill="#9D9CB5"/>
<defs>
<linearGradient id="paint0_linear" x1="132.957" y1="288.81" x2="132.957" y2="101.083" gradientUnits="userSpaceOnUse">
<stop stop-color="#808080" stop-opacity="0.25"/>
<stop offset="0.54" stop-color="#808080" stop-opacity="0.12"/>
<stop offset="1" stop-color="#808080" stop-opacity="0.1"/>
</linearGradient>
</defs>
</svg>
