<svg width="197" height="155" viewBox="0 0 197 155" fill="none" xmlns="http://www.w3.org/2000/svg">
<path d="M107.53 43.1659C117.548 43.1659 125.67 35.7617 125.67 26.6283C125.67 17.4948 117.548 10.0907 107.53 10.0907C97.5121 10.0907 89.3908 17.4948 89.3908 26.6283C89.3908 35.7617 97.5121 43.1659 107.53 43.1659Z" fill="#A0616A"/>
<path d="M93.9914 34.8971C93.9914 34.8971 97.4089 58.3853 92.1512 61.0217C86.8934 63.6581 123.435 63.8978 123.435 63.8978C123.435 63.8978 115.285 43.5254 118.966 37.2938L93.9914 34.8971Z" fill="#A0616A"/>
<path d="M150.118 64.0166L147.079 76.633L140.653 103.325L140.461 104.787L138.243 121.71L136.768 132.952L135.779 140.504C129.765 143.322 125.406 145.267 125.406 145.267C125.406 145.267 125.031 143.554 124.427 141.361C120.206 142.515 112.397 144.429 105.779 144.811C108.189 147.26 109.296 149.561 107.794 151.259C103.26 156.377 84.5424 145.654 77.9957 141.656C77.8433 142.613 77.7855 143.581 77.823 144.548L72.8131 141.035L73.3089 132.952L74.1451 119.277L75.196 102.127C74.8646 101.392 74.5869 100.639 74.3647 99.871C72.8304 94.8964 70.968 84.9629 69.5397 76.633C68.3902 69.929 67.5269 64.264 67.3443 63.0586C67.3197 62.9011 67.3073 62.8202 67.3073 62.8202L95.0408 51.6476C97.0117 55.8148 106.215 57.0675 106.215 57.0675C113.84 56.5884 119.817 52.9227 119.817 52.9227L150.118 64.0166Z" fill="#D0CDE1"/>
<path d="M127.51 140.475C127.51 140.475 126.336 140.842 124.427 141.361C120.206 142.515 112.397 144.429 105.779 144.811C100.08 145.144 95.2653 144.343 94.3847 140.954C94.0073 139.497 94.5425 138.298 95.7093 137.313C99.1923 134.369 108.29 133.315 115.505 132.952C117.542 132.851 119.427 132.804 120.996 132.786C123.66 132.755 125.406 132.804 125.406 132.804L125.448 132.952L127.51 140.475Z" fill="#A0616A"/>
<path d="M92.4399 10.9852L89.0483 9.74729C89.0483 9.74729 96.1398 2.62931 106.006 3.24829L103.231 0.462965C103.231 0.462965 110.015 -2.01283 116.181 4.48617C119.423 7.90254 123.173 11.9183 125.512 16.4421H129.144L127.628 19.4852L132.934 22.5284L127.488 21.9818C127.812 23.6483 127.862 25.3496 127.636 27.0295C127.402 28.7099 126.461 30.2418 125.012 31.3019C125.012 31.3019 120.806 23.3643 120.806 22.1263V25.2211C120.806 25.2211 117.414 22.4358 117.414 20.579L115.565 22.7453L114.64 19.341L103.231 22.7453L105.081 19.96L97.9898 20.8885L100.765 17.4842C100.765 17.4842 92.7483 21.5074 92.4399 24.9117C92.1316 28.3159 89.7852 31.5416 89.7852 31.5416C89.7852 31.5416 83.4984 15.6273 92.4399 10.9852Z" fill="#2F2E41"/>
<path d="M169.835 122.018C167.987 123.844 163.409 126.595 157.859 129.572C155.794 130.679 153.596 131.819 151.354 132.952C146.004 135.658 140.402 138.339 135.779 140.504C129.765 143.322 125.406 145.267 125.406 145.267C125.406 145.267 125.031 143.554 124.427 141.361C123.618 138.426 122.399 134.632 121.129 132.952C121.085 132.894 121.04 132.84 120.996 132.786C120.626 132.343 120.253 132.084 119.886 132.084L138.243 121.71L146.176 117.226L140.461 104.787L133.292 89.1841L137.619 76.633L141.968 64.0166H150.118C150.118 64.0166 152.817 69.387 156.268 76.8759C156.783 77.9958 157.316 79.163 157.859 80.3684C164.958 96.1108 173.809 118.094 169.835 122.018Z" fill="#D0CDE1"/>
<path d="M107.794 151.259C103.26 156.377 84.5424 145.654 77.9957 141.656C76.5699 140.785 75.7214 140.234 75.7214 140.234L81.7106 132.952L83.6075 130.647C83.6075 130.647 85.3046 131.468 87.8133 132.804C87.9046 132.854 87.9958 132.903 88.0896 132.952C90.2529 134.111 92.9688 135.624 95.7093 137.313C99.4908 139.645 103.314 142.306 105.778 144.811C108.189 147.26 109.296 149.561 107.794 151.259Z" fill="#A0616A"/>
<path d="M87.8133 132.804C87.1439 132.802 86.4754 132.851 85.8153 132.952C80.1442 133.841 78.4718 138.521 77.9957 141.656C77.8433 142.613 77.7855 143.581 77.823 144.548L72.8131 141.035L70.9877 139.755C66.5945 138.359 62.6798 135.878 59.2855 132.952C56.341 130.369 53.6996 127.514 51.4043 124.431C49.1181 121.393 47.08 118.206 45.3065 114.896C44.8117 113.972 44.5457 112.96 44.5274 111.933C44.5091 110.905 44.7388 109.886 45.2005 108.948L51.4043 96.3425L60.472 77.9194C60.5386 77.4809 60.6118 77.0521 60.6916 76.633C62.4898 67.2325 67.3073 63.0586 67.3073 63.0586H70.9877L73.4495 76.633L76.5082 93.4976L74.3647 99.871L69.4115 114.59L74.1451 119.277L87.8133 132.804Z" fill="#D0CDE1"/>
<path d="M91.9787 93.511L95.125 96.8576C96.2939 96.6544 97.5146 96.4156 98.7719 96.1475L97.8682 93.511L100.078 95.8612C113.398 92.8745 129.907 87.0677 129.907 87.0677C129.907 87.0677 112.083 88.2592 98.775 85.6084C92.8867 84.4356 86.8284 87.0968 84.4121 92.1308C83.0077 95.0568 83.2282 97.5918 88.2094 97.5918C89.8925 97.5656 91.5709 97.4217 93.2299 97.1613L91.9787 93.511Z" fill="#8ECC8E"/>
<path d="M163.705 148.515V149.88C163.706 150.255 163.63 150.626 163.48 150.975C163.414 151.131 163.334 151.281 163.241 151.425C162.947 151.875 162.53 152.247 162.03 152.506C161.531 152.765 160.966 152.901 160.392 152.9H50.24C49.6656 152.901 49.101 152.765 48.6016 152.506C48.1021 152.247 47.6849 151.875 47.3909 151.425C47.2979 151.281 47.2179 151.131 47.1517 150.975C47.0025 150.626 46.9264 150.255 46.9272 149.88V148.515C46.9271 148.118 47.0127 147.725 47.1791 147.359C47.3456 146.992 47.5896 146.66 47.8972 146.379C48.2049 146.099 48.5701 145.876 48.9721 145.724C49.3741 145.573 49.8049 145.495 50.24 145.495H56.5894V144.858C56.5894 144.842 56.5929 144.825 56.5998 144.81C56.6068 144.795 56.617 144.781 56.6298 144.769C56.6426 144.757 56.6579 144.748 56.6746 144.742C56.6914 144.735 56.7094 144.732 56.7275 144.732H60.0403C60.0585 144.732 60.0765 144.735 60.0932 144.742C60.11 144.748 60.1253 144.757 60.1381 144.769C60.1509 144.781 60.1611 144.795 60.168 144.81C60.175 144.825 60.1785 144.842 60.1785 144.858V145.495H62.2481V144.858C62.248 144.842 62.2516 144.825 62.2585 144.81C62.2655 144.795 62.2756 144.781 62.2885 144.769C62.3013 144.757 62.3165 144.748 62.3333 144.742C62.3501 144.735 62.3681 144.732 62.3862 144.732H65.699C65.7172 144.732 65.7352 144.735 65.7519 144.742C65.7687 144.748 65.7839 144.757 65.7968 144.769C65.8096 144.781 65.8198 144.795 65.8267 144.81C65.8336 144.825 65.8372 144.842 65.8372 144.858V145.495H67.9092V144.858C67.9092 144.842 67.9127 144.825 67.9197 144.81C67.9266 144.795 67.9368 144.781 67.9496 144.769C67.9625 144.757 67.9777 144.748 67.9945 144.742C68.0112 144.735 68.0292 144.732 68.0474 144.732H71.3602C71.3783 144.732 71.3963 144.735 71.4131 144.742C71.4299 144.748 71.4451 144.757 71.4579 144.769C71.4708 144.781 71.4809 144.795 71.4879 144.81C71.4948 144.825 71.4983 144.842 71.4983 144.858V145.495H73.5679V144.858C73.5679 144.842 73.5714 144.825 73.5784 144.81C73.5853 144.795 73.5955 144.781 73.6083 144.769C73.6211 144.757 73.6364 144.748 73.6531 144.742C73.6699 144.735 73.6879 144.732 73.706 144.732H77.0189C77.037 144.732 77.055 144.735 77.0718 144.742C77.0885 144.748 77.1038 144.757 77.1166 144.769C77.1294 144.781 77.1396 144.795 77.1466 144.81C77.1535 144.825 77.157 144.842 77.157 144.858V145.495H79.2266V144.858C79.2266 144.842 79.2301 144.825 79.237 144.81C79.244 144.795 79.2542 144.781 79.267 144.769C79.2798 144.757 79.2951 144.748 79.3118 144.742C79.3286 144.735 79.3466 144.732 79.3647 144.732H82.6776C82.6957 144.732 82.7137 144.735 82.7305 144.742C82.7472 144.748 82.7625 144.757 82.7753 144.769C82.7881 144.781 82.7983 144.795 82.8052 144.81C82.8122 144.825 82.8157 144.842 82.8157 144.858V145.495H84.8878V144.858C84.8877 144.842 84.8913 144.825 84.8982 144.81C84.9051 144.795 84.9153 144.781 84.9282 144.769C84.941 144.757 84.9562 144.748 84.973 144.742C84.9898 144.735 85.0077 144.732 85.0259 144.732H88.3387C88.3569 144.732 88.3748 144.735 88.3916 144.742C88.4084 144.748 88.4236 144.757 88.4365 144.769C88.4493 144.781 88.4595 144.795 88.4664 144.81C88.4733 144.825 88.4769 144.842 88.4768 144.858V145.495H90.5464V144.858C90.5464 144.842 90.55 144.825 90.5569 144.81C90.5638 144.795 90.574 144.781 90.5868 144.769C90.5997 144.757 90.6149 144.748 90.6317 144.742C90.6484 144.735 90.6664 144.732 90.6846 144.732H116.635C116.653 144.732 116.671 144.735 116.688 144.742C116.704 144.748 116.72 144.757 116.732 144.769C116.745 144.781 116.755 144.795 116.762 144.81C116.769 144.825 116.773 144.842 116.773 144.858V145.495H118.845V144.858C118.845 144.842 118.848 144.825 118.855 144.81C118.862 144.795 118.872 144.781 118.885 144.769C118.898 144.757 118.913 144.748 118.93 144.742C118.947 144.735 118.965 144.732 118.983 144.732H122.296C122.332 144.733 122.367 144.746 122.393 144.769C122.419 144.793 122.434 144.825 122.434 144.858V145.495H124.504V144.858C124.503 144.842 124.507 144.825 124.514 144.81C124.521 144.795 124.531 144.781 124.544 144.769C124.557 144.757 124.572 144.748 124.589 144.742C124.606 144.735 124.623 144.732 124.642 144.732H127.954C127.973 144.732 127.991 144.735 128.007 144.742C128.024 144.748 128.039 144.757 128.052 144.769C128.065 144.781 128.075 144.795 128.082 144.81C128.089 144.825 128.093 144.842 128.093 144.858V145.495H130.162V144.858C130.162 144.842 130.166 144.825 130.173 144.81C130.18 144.795 130.19 144.781 130.203 144.769C130.215 144.757 130.231 144.748 130.247 144.742C130.264 144.735 130.282 144.732 130.3 144.732H133.613C133.631 144.732 133.649 144.735 133.666 144.742C133.683 144.748 133.698 144.757 133.711 144.769C133.724 144.781 133.734 144.795 133.741 144.81C133.748 144.825 133.751 144.842 133.751 144.858V145.495H135.823V144.858C135.823 144.842 135.827 144.825 135.834 144.81C135.841 144.795 135.851 144.781 135.864 144.769C135.877 144.757 135.892 144.748 135.909 144.742C135.925 144.735 135.943 144.732 135.962 144.732H139.274C139.311 144.733 139.345 144.746 139.371 144.77C139.396 144.793 139.41 144.825 139.41 144.858V145.495H141.482V144.858C141.482 144.842 141.486 144.825 141.493 144.81C141.499 144.795 141.51 144.781 141.522 144.769C141.535 144.757 141.551 144.748 141.567 144.742C141.584 144.735 141.602 144.732 141.62 144.732H144.933C144.951 144.732 144.969 144.735 144.986 144.742C145.003 144.748 145.018 144.757 145.031 144.769C145.044 144.781 145.054 144.795 145.061 144.81C145.068 144.825 145.071 144.842 145.071 144.858V145.495H147.141V144.858C147.141 144.842 147.144 144.825 147.151 144.81C147.158 144.795 147.168 144.781 147.181 144.769C147.194 144.757 147.209 144.748 147.226 144.742C147.243 144.735 147.261 144.732 147.279 144.732H150.592C150.61 144.732 150.628 144.735 150.645 144.742C150.661 144.748 150.677 144.757 150.689 144.769C150.702 144.781 150.712 144.795 150.719 144.81C150.726 144.825 150.73 144.842 150.73 144.858V145.495H160.392C160.827 145.495 161.258 145.573 161.66 145.724C162.062 145.876 162.427 146.099 162.735 146.379C163.042 146.66 163.286 146.992 163.453 147.359C163.619 147.725 163.705 148.118 163.705 148.515Z" fill="#3F3D56"/>
<path d="M195.735 150.975H14.9238V151.425H195.735V150.975Z" fill="#3F3D56"/>
<path d="M154.836 91.0261H113.778V90.2546H95.1616V91.0261H53.9353C53.1988 91.0261 52.4924 91.2929 51.9716 91.7677C51.4507 92.2426 51.1581 92.8866 51.1581 93.5581V144.813C51.1581 145.485 51.4507 146.129 51.9716 146.604C52.4924 147.079 53.1988 147.345 53.9353 147.345H154.836C155.572 147.345 156.278 147.079 156.799 146.604C157.32 146.129 157.613 145.485 157.613 144.813V93.5581C157.613 93.2256 157.541 92.8963 157.401 92.5892C157.262 92.282 157.057 92.0028 156.799 91.7677C156.541 91.5326 156.235 91.3461 155.898 91.2189C155.561 91.0916 155.2 91.0261 154.836 91.0261Z" fill="#3F3D56"/>
<path d="M104.466 114.543C107.872 114.543 110.633 112.026 110.633 108.921C110.633 105.816 107.872 103.298 104.466 103.298C101.06 103.298 98.2994 105.816 98.2994 108.921C98.2994 112.026 101.06 114.543 104.466 114.543Z" stroke="#D0CDE1" stroke-width="2" stroke-miterlimit="10"/>
<path d="M102.493 116.567C105.899 116.567 108.66 114.05 108.66 110.945C108.66 107.84 105.899 105.322 102.493 105.322C99.087 105.322 96.326 107.84 96.326 110.945C96.326 114.05 99.087 116.567 102.493 116.567Z" fill="#D0CDE1"/>
<path d="M26.7508 148.703H19.8439V155H26.7508V148.703Z" fill="#D0CDE1"/>
<path d="M22.5583 143.756V151.402H30.9452V143.756H22.5583ZM30.5801 151.069H22.9209V144.088H30.5801V151.069Z" fill="#3F3D56"/>
<path d="M186.595 148.703H179.688V155H186.595V148.703Z" fill="#D0CDE1"/>
<path d="M182.403 143.756V151.402H190.789V143.756H182.403ZM190.424 151.069H182.765V144.088H190.424V151.069Z" fill="#3F3D56"/>
<path d="M23.3304 51.7504C34.1392 51.7504 42.9016 43.7619 42.9016 33.9075C42.9016 24.0531 34.1392 16.0645 23.3304 16.0645C12.5215 16.0645 3.75922 24.0531 3.75922 33.9075C3.75922 43.7619 12.5215 51.7504 23.3304 51.7504Z" fill="#8ECC8E"/>
<path d="M30.1506 12.7041C28.3786 12.4986 26.5851 12.4986 24.813 12.7041C20.8652 13.1767 17.1489 14.6719 14.1051 17.0122C11.0613 19.3526 8.81782 22.4399 7.64084 25.9079C7.10555 27.4883 6.80242 29.1265 6.73937 30.7795C6.73049 31.0093 6.72455 31.2418 6.72455 31.4743C6.73005 36.4918 8.91874 41.3024 12.8103 44.8503C16.7019 48.3982 21.9784 50.3937 27.4818 50.3987C27.9237 50.3987 28.3655 50.3852 28.8014 50.3608C29.8247 50.3023 30.8416 50.174 31.8439 49.9769C36.6298 49.0386 40.898 46.5886 43.8948 43.0595C46.8915 39.5304 48.4239 35.1494 48.2214 30.6902C48.0188 26.2309 46.0943 21.9804 42.7877 18.6893C39.4811 15.3983 35.0053 13.2784 30.1506 12.7041H30.1506ZM33.9789 48.8793H33.9759C32.3042 49.3994 30.5642 49.7149 28.8014 49.8174C28.3655 49.8445 27.9237 49.858 27.4818 49.858C22.1359 49.852 17.0109 47.9133 13.2308 44.4669C9.45068 41.0206 7.32414 36.3481 7.31759 31.4743C7.31759 31.2418 7.32353 31.0093 7.33242 30.7795C7.53627 26.0297 9.7475 21.536 13.5032 18.2389C17.2589 14.9418 22.268 13.097 27.4818 13.0907C32.259 13.0909 36.8809 14.6374 40.5242 17.4545C44.1674 20.2717 46.5954 24.1765 47.3754 28.4734C48.1555 32.7703 47.237 37.1801 44.7836 40.9171C42.3302 44.6542 38.5012 47.4759 33.9788 48.8793H33.9789Z" fill="#3F3D56"/>
<path d="M27.7784 14.1721H27.1853V17.9569H27.7784V14.1721Z" fill="#3F3D56"/>
<path d="M14.272 19.0486L13.8526 19.431L16.7881 22.1073L17.2075 21.7249L14.272 19.0486Z" fill="#3F3D56"/>
<path d="M8.50372 31.204V31.7447H12.6552V31.204H8.50372Z" fill="#3F3D56"/>
<path d="M13.8526 43.5177L14.272 43.9L17.2075 41.2237L16.7881 40.8414L13.8526 43.5177Z" fill="#3F3D56"/>
<path d="M37.7562 21.7249L38.1755 22.1073L41.1111 19.431L40.6917 19.0486L37.7562 21.7249Z" fill="#3F3D56"/>
<path d="M42.3085 31.204V31.7447H46.4599V31.204H42.3085Z" fill="#3F3D56"/>
<path d="M38.1756 40.8414L37.7562 41.2237L40.6918 43.9001L41.1111 43.5177L38.1756 40.8414Z" fill="#3F3D56"/>
<path d="M27.7784 44.9917H27.1853V48.7766H27.7784V44.9917Z" fill="#3F3D56"/>
<path d="M28.3714 30.393C28.1148 30.2175 27.8026 30.1226 27.4818 30.1226C27.161 30.1226 26.8489 30.2175 26.5922 30.393C26.4165 30.5146 26.2719 30.6696 26.1682 30.8471C26.0368 31.0758 25.98 31.3339 26.0044 31.5911C26.0289 31.8482 26.1335 32.0936 26.3061 32.2983C26.4786 32.5029 26.7118 32.6582 26.9781 32.7459C27.2443 32.8336 27.5326 32.8499 27.8087 32.793C28.0849 32.7361 28.3373 32.6082 28.5364 32.4247C28.7354 32.2411 28.8726 32.0094 28.9317 31.757C28.9909 31.5046 28.9696 31.242 28.8703 31.0003C28.771 30.7586 28.5979 30.5478 28.3714 30.393H28.3714ZM27.4818 32.2854C27.2461 32.2848 27.0202 32.1991 26.8535 32.0471C26.6869 31.8952 26.5929 31.6893 26.5922 31.4743C26.5934 31.3103 26.6481 31.1503 26.7494 31.0148C26.8363 30.9 26.9542 30.8077 27.0916 30.7466C27.2291 30.6856 27.3816 30.6579 27.5342 30.6663C27.6869 30.6747 27.8345 30.7189 27.963 30.7945C28.0914 30.8702 28.1963 30.9748 28.2674 31.0982C28.3386 31.2216 28.3736 31.3597 28.3691 31.499C28.3646 31.6384 28.3207 31.7743 28.2417 31.8937C28.1627 32.0131 28.0513 32.1118 27.9181 32.1805C27.785 32.2491 27.6347 32.2852 27.4818 32.2854V32.2854Z" fill="#3F3D56"/>
<path d="M30.1506 7.95409H24.813V12.8203H30.1506V7.95409Z" fill="#3F3D56"/>
<path d="M27.4818 8.76512C31.4123 8.76512 34.5986 7.73629 34.5986 6.46716C34.5986 5.19804 31.4123 4.1692 27.4818 4.1692C23.5513 4.1692 20.3651 5.19804 20.3651 6.46716C20.3651 7.73629 23.5513 8.76512 27.4818 8.76512Z" fill="#3F3D56"/>
<path d="M28.3714 21.2011H26.5922V30.393H28.3714V21.2011Z" fill="#3F3D56"/>
<path d="M55.7482 49.575H0V50.1157H55.7482V49.575Z" fill="#3F3D56"/>
<path d="M37.1474 134.879C37.3776 142.065 32.7726 144.698 26.9935 144.852C26.8593 144.855 26.7257 144.857 26.5926 144.858C26.3246 144.86 26.0592 144.856 25.7964 144.846C20.5698 144.648 16.4327 142.119 16.2186 135.437C15.9971 128.521 25.4119 119.536 26.1183 118.871L26.1195 118.871C26.1463 118.846 26.1601 118.833 26.1601 118.833C26.1601 118.833 36.9173 127.695 37.1474 134.879Z" fill="#D0CDE1"/>
<path d="M26.5775 143.763L30.2485 138.786L26.585 144.298L26.5926 144.858C26.3246 144.86 26.0592 144.856 25.7964 144.846L25.9785 137.647L25.9735 137.591L25.9802 137.581L25.9977 136.9L21.9774 131.579L25.9929 136.391L26.0072 136.535L26.1447 131.096L22.6723 125.579L26.1546 130.14L26.1182 118.871L26.1183 118.834L26.1195 118.871L26.35 127.752L29.5147 124.145L26.3604 128.517L26.4294 133.383L29.3416 128.634L26.4401 134.098L26.4786 136.803L30.7137 130.189L26.4915 137.747L26.5775 143.763Z" fill="#3F3D56"/>
<path d="M196.992 134.879C197.222 142.065 192.617 144.698 186.838 144.852C186.704 144.855 186.57 144.857 186.437 144.858C186.169 144.86 185.904 144.856 185.641 144.846C180.414 144.648 176.277 142.119 176.063 135.437C175.841 128.521 185.256 119.536 185.963 118.871L185.964 118.871C185.991 118.846 186.004 118.833 186.004 118.833C186.004 118.833 196.762 127.695 196.992 134.879Z" fill="#D0CDE1"/>
<path d="M186.422 143.763L190.093 138.786L186.429 144.298L186.437 144.858C186.169 144.86 185.904 144.856 185.641 144.846L185.823 137.647L185.818 137.591L185.825 137.581L185.842 136.9L181.822 131.579L185.837 136.391L185.852 136.535L185.989 131.096L182.517 125.579L185.999 130.14L185.963 118.871L185.963 118.834L185.964 118.871L186.194 127.752L189.359 124.145L186.205 128.517L186.274 133.383L189.186 128.634L186.284 134.098L186.323 136.803L190.558 130.189L186.336 137.747L186.422 143.763Z" fill="#3F3D56"/>
</svg>
