<svg width="219" height="162" viewBox="0 0 219 162" fill="none" xmlns="http://www.w3.org/2000/svg">
<g clip-path="url(#clip0)">
<path d="M165.416 129.007C164.816 124.39 164.658 119.713 164.943 115.057L165.416 107.352C162.813 113.272 163.401 121.065 165.416 129.007V129.007Z" fill="#CACACA"/>
<path d="M167.445 130.296C167.157 127.541 167.081 124.763 167.218 121.993L167.445 117.406C166.193 120.93 166.476 125.569 167.445 130.296Z" fill="#CACACA"/>
<path d="M176.468 135.969V138.547C176.467 138.751 176.395 138.947 176.268 139.092C176.142 139.237 175.97 139.319 175.791 139.32H174.663C174.634 139.32 174.604 139.326 174.577 139.339C174.55 139.352 174.525 139.371 174.504 139.395C174.483 139.419 174.466 139.448 174.455 139.479C174.443 139.51 174.438 139.544 174.438 139.578V160.718C174.437 160.923 174.365 161.119 174.239 161.264C174.112 161.408 173.94 161.49 173.761 161.491H160.004C159.825 161.491 159.653 161.41 159.526 161.265C159.399 161.12 159.328 160.923 159.327 160.718V139.578C159.327 139.51 159.303 139.444 159.261 139.396C159.219 139.347 159.162 139.32 159.102 139.32H157.749C157.569 139.32 157.397 139.238 157.27 139.093C157.144 138.948 157.072 138.752 157.072 138.547V135.969C157.072 135.867 157.089 135.766 157.123 135.672C157.157 135.578 157.207 135.493 157.27 135.421C157.333 135.349 157.407 135.293 157.49 135.254C157.572 135.215 157.66 135.195 157.749 135.195H175.791C175.97 135.196 176.142 135.277 176.269 135.422C176.396 135.567 176.467 135.764 176.468 135.969Z" fill="#F2F2F2"/>
<path d="M174.458 139.861H159.348V140.635H174.458V139.861Z" fill="#E6E6E6"/>
<path d="M174.438 151.242C169.382 153.634 164.27 153.66 159.102 151.242V145.793C164.077 143.883 169.462 143.883 174.438 145.793V151.242Z" fill="#E6E6E6"/>
<path d="M101.822 64.5496C106.355 64.5496 110.03 60.3486 110.03 55.1665C110.03 49.9845 106.355 45.7835 101.822 45.7835C97.2887 45.7835 93.6137 49.9845 93.6137 55.1665C93.6137 60.3486 97.2887 64.5496 101.822 64.5496Z" fill="#2F2E41"/>
<path d="M104.109 46.0418C105.529 46.042 106.926 46.4636 108.161 47.2653C109.396 48.0671 110.428 49.2215 111.157 50.6158C111.885 52.0101 112.284 53.5965 112.315 55.22C112.346 56.8435 112.008 58.4484 111.335 59.8779C112.046 58.8601 112.565 57.684 112.857 56.4245C113.149 55.1651 113.208 53.8499 113.031 52.5628C112.853 51.2757 112.444 50.0449 111.827 48.9488C111.211 47.8528 110.402 46.9155 109.451 46.1968C108.5 45.478 107.429 44.9936 106.306 44.7742C105.182 44.5549 104.031 44.6055 102.925 44.9229C101.82 45.2403 100.784 45.8174 99.8847 46.6176C98.9851 47.4177 98.2412 48.4233 97.7004 49.5702C98.4677 48.469 99.4424 47.5799 100.552 46.969C101.661 46.3581 102.877 46.0412 104.109 46.0418Z" fill="#2F2E41"/>
<path d="M86.4836 55.1472C99.8002 55.1472 110.595 42.807 110.595 27.5846C110.595 12.3622 99.8002 0.0220032 86.4836 0.0220032C73.167 0.0220032 62.3718 12.3622 62.3718 27.5846C62.3718 42.807 73.167 55.1472 86.4836 55.1472Z" fill="#2F2E41"/>
<path d="M67.5597 10.4828C71.7144 5.14158 77.5219 1.8545 83.7566 1.3153C89.9912 0.776096 96.1653 3.02694 100.976 7.59279C100.778 7.37854 100.583 7.16255 100.379 6.95436C95.5987 2.10124 89.3284 -0.3833 82.9465 0.0470213C76.5645 0.477342 70.5933 3.78729 66.3457 9.2491C62.0981 14.7109 59.922 21.8774 60.2957 29.1729C60.6694 36.4685 63.5624 43.2957 68.3385 48.1535C68.5434 48.3617 68.7539 48.5578 68.9631 48.7566C64.433 43.8304 61.7543 37.085 61.4924 29.944C61.2306 22.803 63.406 15.825 67.5597 10.4828Z" fill="#2F2E41"/>
<path d="M86.2793 54.9131C94.856 54.9131 101.809 46.9651 101.809 37.1609C101.809 27.3566 94.856 19.4087 86.2793 19.4087C77.7025 19.4087 70.7496 27.3566 70.7496 37.1609C70.7496 46.9651 77.7025 54.9131 86.2793 54.9131Z" fill="#FFB8B8"/>
<path d="M94.2124 59.7323L77.5936 60.5863C77.5936 60.5863 78.9806 70.4108 69.9898 71.3451C60.999 72.2794 52.8254 69.4765 49.556 76.4839C46.2866 83.4913 47.6958 108.443 47.6958 108.443C47.6958 108.443 53.826 133.67 58.73 137.407C63.6341 141.144 106.545 136.006 106.545 136.006L124.504 110.085L123.895 90.0948C123.578 79.656 115.24 71.8186 106.26 73.7504C106.084 73.7883 105.906 73.8292 105.728 73.873C105.728 73.873 103.755 72.1875 98.3422 69.0939C95.0322 67.202 94.2124 59.7323 94.2124 59.7323Z" fill="#CACACA"/>
<path d="M58.1382 70.8779C58.1382 70.8779 62.0881 79.0704 60.4534 90.7495C58.8187 102.429 65.6775 127.13 65.6775 127.13L70.5816 125.728C70.5816 125.728 67.3122 101.436 68.1296 95.8296C68.9469 90.2237 69.1724 73.6809 65.0857 70.8779C60.9989 68.075 58.1382 70.8779 58.1382 70.8779Z" fill="#2F2E41"/>
<path d="M105.44 75.1735L107.158 126.896L110.427 129.232C110.427 129.232 115.127 72.4715 112.675 72.4715H107.686C107.391 72.4715 107.098 72.5379 106.825 72.6671C106.553 72.7963 106.305 72.9856 106.096 73.2243C105.887 73.463 105.721 73.7464 105.608 74.0582C105.495 74.3701 105.437 74.7043 105.437 75.0419C105.437 75.0858 105.438 75.1297 105.44 75.1735Z" fill="#2F2E41"/>
<path d="M67.9252 125.962C69.0537 125.962 69.9686 124.916 69.9686 123.626C69.9686 122.336 69.0537 121.29 67.9252 121.29C66.7967 121.29 65.8818 122.336 65.8818 123.626C65.8818 124.916 66.7967 125.962 67.9252 125.962Z" fill="#8ECC8E"/>
<path d="M108.793 128.297C109.921 128.297 110.836 127.252 110.836 125.962C110.836 124.672 109.921 123.626 108.793 123.626C107.664 123.626 106.749 124.672 106.749 125.962C106.749 127.252 107.664 128.297 108.793 128.297Z" fill="#8ECC8E"/>
<path d="M72.9973 14.9705V32.7227H76.5938L81.1709 27.1167L80.5579 32.7227H96.4552L95.4744 27.1167L97.436 32.7227H99.9699V14.9705H72.9973Z" fill="#2F2E41"/>
<path d="M70.5453 35.993C71.2224 35.993 71.7713 34.8426 71.7713 33.4236C71.7713 32.0045 71.2224 30.8542 70.5453 30.8542C69.8682 30.8542 69.3192 32.0045 69.3192 33.4236C69.3192 34.8426 69.8682 35.993 70.5453 35.993Z" fill="#FFB8B8"/>
<path d="M102.013 35.993C102.69 35.993 103.239 34.8426 103.239 33.4236C103.239 32.0045 102.69 30.8542 102.013 30.8542C101.336 30.8542 100.787 32.0045 100.787 33.4236C100.787 34.8426 101.336 35.993 102.013 35.993Z" fill="#FFB8B8"/>
<path d="M136.028 156.861V158.425C136.029 158.855 135.959 159.281 135.823 159.681C135.762 159.859 135.689 160.032 135.604 160.197C135.335 160.712 134.954 161.139 134.497 161.436C134.041 161.732 133.524 161.888 132.999 161.888H32.2894C31.7642 161.888 31.248 161.732 30.7913 161.436C30.3347 161.139 29.9533 160.712 29.6845 160.197C29.5995 160.032 29.5263 159.859 29.4657 159.681C29.3294 159.281 29.2597 158.855 29.2605 158.425V156.861C29.2604 156.406 29.3386 155.956 29.4907 155.536C29.6428 155.116 29.8657 154.734 30.1468 154.413C30.4279 154.091 30.7617 153.836 31.129 153.662C31.4964 153.488 31.8901 153.398 32.2877 153.398H38.0945V152.669C38.0944 152.65 38.0977 152.631 38.104 152.613C38.1103 152.596 38.1195 152.58 38.1312 152.567C38.1429 152.553 38.1568 152.543 38.1721 152.535C38.1874 152.528 38.2038 152.524 38.2203 152.524H41.2496C41.283 152.524 41.3151 152.539 41.3388 152.566C41.3625 152.593 41.3758 152.63 41.3759 152.668V153.398H43.2681V152.669C43.2681 152.65 43.2713 152.631 43.2776 152.613C43.2839 152.596 43.2932 152.58 43.3049 152.567C43.3166 152.553 43.3304 152.543 43.3457 152.535C43.361 152.528 43.3774 152.524 43.394 152.524H46.4232C46.4567 152.524 46.4888 152.539 46.5124 152.566C46.5361 152.593 46.5495 152.63 46.5495 152.668V153.398H48.444V152.669C48.4439 152.65 48.4472 152.631 48.4535 152.613C48.4598 152.596 48.4691 152.58 48.4807 152.567C48.4924 152.553 48.5063 152.543 48.5216 152.535C48.5369 152.528 48.5533 152.524 48.5698 152.524H51.5991C51.6325 152.524 51.6646 152.539 51.6883 152.566C51.712 152.593 51.7253 152.63 51.7254 152.668V153.398H53.6176V152.669C53.6176 152.65 53.6208 152.631 53.6271 152.613C53.6334 152.596 53.6427 152.58 53.6544 152.567C53.6661 152.553 53.6799 152.543 53.6952 152.535C53.7105 152.528 53.7269 152.524 53.7435 152.524H56.7727C56.8062 152.524 56.8383 152.539 56.8619 152.566C56.8856 152.593 56.899 152.63 56.899 152.668V153.398H58.7912V152.669C58.7912 152.65 58.7944 152.631 58.8007 152.614C58.807 152.596 58.8163 152.58 58.828 152.567C58.8397 152.553 58.8536 152.543 58.8689 152.535C58.8841 152.528 58.9005 152.524 58.9171 152.524H61.9464C61.9798 152.524 62.0119 152.539 62.0356 152.566C62.0593 152.593 62.0726 152.63 62.0726 152.668V153.398H63.9671V152.669C63.9671 152.65 63.9703 152.631 63.9766 152.614C63.9829 152.596 63.9922 152.58 64.0039 152.567C64.0156 152.553 64.0294 152.543 64.0447 152.535C64.06 152.528 64.0764 152.524 64.093 152.524H67.1222C67.1557 152.524 67.1878 152.539 67.2114 152.566C67.2351 152.593 67.2485 152.63 67.2485 152.668V153.398H69.1407V152.669C69.1407 152.65 69.1439 152.631 69.1502 152.614C69.1565 152.596 69.1658 152.58 69.1775 152.567C69.1892 152.553 69.2031 152.543 69.2184 152.535C69.2336 152.528 69.25 152.524 69.2666 152.524H92.9926C93.0092 152.524 93.0256 152.528 93.0409 152.535C93.0562 152.542 93.0701 152.553 93.0818 152.566C93.0936 152.58 93.1029 152.596 93.1092 152.613C93.1156 152.631 93.1189 152.649 93.1189 152.668V153.398H95.0134V152.669C95.0133 152.65 95.0166 152.631 95.0229 152.614C95.0292 152.596 95.0385 152.58 95.0501 152.567C95.0618 152.553 95.0757 152.543 95.091 152.535C95.1063 152.528 95.1227 152.524 95.1392 152.524H98.1685C98.2019 152.525 98.2338 152.54 98.2575 152.567C98.2811 152.594 98.2945 152.631 98.2948 152.669V153.398H100.187V152.669C100.187 152.65 100.19 152.631 100.196 152.614C100.203 152.596 100.212 152.58 100.224 152.567C100.235 152.553 100.249 152.543 100.265 152.535C100.28 152.528 100.296 152.524 100.313 152.524H103.342C103.359 152.524 103.375 152.528 103.39 152.535C103.406 152.542 103.42 152.553 103.431 152.566C103.443 152.58 103.452 152.596 103.459 152.613C103.465 152.631 103.468 152.649 103.468 152.668V153.398H105.361V152.669C105.361 152.65 105.364 152.631 105.37 152.614C105.376 152.596 105.386 152.58 105.397 152.567C105.409 152.553 105.423 152.543 105.438 152.535C105.454 152.528 105.47 152.524 105.486 152.524H108.516C108.532 152.524 108.549 152.528 108.564 152.535C108.579 152.542 108.593 152.553 108.605 152.566C108.617 152.58 108.626 152.596 108.632 152.613C108.639 152.631 108.642 152.649 108.642 152.668V153.398H110.536V152.669C110.536 152.65 110.54 152.631 110.546 152.614C110.552 152.596 110.562 152.58 110.573 152.567C110.585 152.553 110.599 152.543 110.614 152.535C110.629 152.528 110.646 152.524 110.662 152.524H113.692C113.725 152.525 113.756 152.54 113.78 152.567C113.803 152.594 113.816 152.631 113.816 152.669V153.398H115.71V152.669C115.71 152.65 115.713 152.631 115.72 152.614C115.726 152.596 115.735 152.58 115.747 152.567C115.759 152.553 115.772 152.543 115.788 152.535C115.803 152.528 115.819 152.524 115.836 152.524H118.865C118.882 152.524 118.898 152.528 118.914 152.535C118.929 152.542 118.943 152.553 118.954 152.566C118.966 152.58 118.976 152.596 118.982 152.613C118.988 152.631 118.992 152.649 118.992 152.668V153.398H120.884V152.669C120.884 152.65 120.887 152.631 120.893 152.614C120.9 152.596 120.909 152.58 120.921 152.567C120.932 152.553 120.946 152.543 120.961 152.535C120.977 152.528 120.993 152.524 121.01 152.524H124.039C124.055 152.524 124.072 152.528 124.087 152.535C124.102 152.542 124.116 152.553 124.128 152.566C124.14 152.58 124.149 152.596 124.155 152.613C124.162 152.631 124.165 152.649 124.165 152.668V153.398H132.999C133.802 153.398 134.572 153.762 135.141 154.411C135.709 155.06 136.028 155.941 136.028 156.859L136.028 156.861Z" fill="#3F3D56"/>
<path d="M219 161.484H0V162H219V161.484Z" fill="#3F3D56"/>
<path d="M127.919 90.9568H35.6675C35.3341 90.9568 35.0039 91.0318 34.6958 91.1777C34.3877 91.3236 34.1078 91.5374 33.8721 91.8069C33.6363 92.0764 33.4492 92.3964 33.3216 92.7485C33.194 93.1007 33.1284 93.4781 33.1284 93.8593V152.616C33.1284 153.386 33.3959 154.124 33.872 154.668C34.3482 155.213 34.9941 155.519 35.6675 155.519H127.919C128.592 155.519 129.238 155.213 129.714 154.668C130.19 154.124 130.458 153.386 130.458 152.616V93.8593C130.458 93.0895 130.19 92.3512 129.714 91.8069C129.238 91.2626 128.592 90.9568 127.919 90.9568Z" fill="#3F3D56"/>
<path d="M81.8669 117.915C84.9808 117.915 87.5051 115.03 87.5051 111.47C87.5051 107.911 84.9808 105.025 81.8669 105.025C78.753 105.025 76.2287 107.911 76.2287 111.47C76.2287 115.03 78.753 117.915 81.8669 117.915Z" fill="#8ECC8E"/>
<path d="M116.77 68.8904L145.233 36.0969H158.671V35.5812H145.045L144.979 35.6578L116.45 68.528L116.77 68.8904Z" fill="#3F3D56"/>
<path d="M208.062 22.6333H175.084V25.9925H208.062V22.6333Z" fill="#8ECC8E"/>
<path d="M171.065 28.1165H164.084V20.136H171.065V28.1165ZM164.535 27.6009H170.614V20.6516H164.535L164.535 27.6009Z" fill="#3F3D56"/>
<path d="M208.062 33.8305H175.084V37.1897H208.062V33.8305Z" fill="#8ECC8E"/>
<path d="M171.065 39.3137H164.084V31.3333H171.065V39.3137ZM164.535 38.7981H170.614V31.8489H164.535L164.535 38.7981Z" fill="#3F3D56"/>
<path d="M208.062 45.0277H175.084V48.3869H208.062V45.0277Z" fill="#8ECC8E"/>
<path d="M171.065 50.5108H164.084V42.5304H171.065V50.5108ZM164.535 49.9952H170.614V43.046H164.535L164.535 49.9952Z" fill="#3F3D56"/>
</g>
<defs>
<clipPath id="clip0">
<rect width="219" height="162" fill="white"/>
</clipPath>
</defs>
</svg>
