<svg width="117" height="129" viewBox="0 0 117 129" fill="none" xmlns="http://www.w3.org/2000/svg">
<path d="M116.749 0H0V128.48H116.749V0Z" fill="#E6E6E6"/>
<path d="M114.463 2.71809H2.0816V125.762H114.463V2.71809Z" fill="white"/>
<path d="M58.3745 121.387C61.8536 121.387 64.674 118.644 64.674 115.26C64.674 111.877 61.8536 109.134 58.3745 109.134C54.8954 109.134 52.075 111.877 52.075 115.26C52.075 118.644 54.8954 121.387 58.3745 121.387Z" fill="#E6E6E6"/>
<path d="M57.3103 46.273H21.1284V49.8728H57.3103V46.273Z" fill="#E6E6E6"/>
<path d="M75.7367 57.0602H21.1284V60.66H75.7367V57.0602Z" fill="#8ECC8E"/>
<path d="M70.3764 67.9151H21.1284V71.515H70.3764V67.9151Z" fill="#E6E6E6"/>
<path d="M97.1778 78.4833H21.1284V82.0831H97.1778V78.4833Z" fill="#8ECC8E"/>
<path d="M83.8973 88.548H21.9188V92.1479H83.8973V88.548Z" fill="#E6E6E6"/>
<path d="M58.273 10.0065C55.6235 10.0064 53.0335 10.7704 50.8305 12.2018C48.6275 13.6333 46.9104 15.668 45.8963 18.0485C44.8823 20.4291 44.6169 23.0487 45.1336 25.5759C45.6504 28.1032 46.9261 30.4247 48.7994 32.2469C50.6728 34.069 53.0597 35.31 55.6582 35.8128C58.2568 36.3156 60.9503 36.0578 63.3981 35.0718C65.8459 34.0858 67.9382 32.4161 69.4103 30.2736C70.8824 28.1312 71.6682 25.6123 71.6683 23.0356V23.0349C71.6683 21.324 71.3218 19.6298 70.6486 18.0492C69.9754 16.4685 68.9886 15.0323 67.7447 13.8225C66.5008 12.6127 65.024 11.653 63.3987 10.9983C61.7735 10.3435 60.0315 10.0065 58.2723 10.0065H58.273ZM58.273 13.9147C59.0678 13.9147 59.8447 14.1439 60.5055 14.5733C61.1664 15.0028 61.6814 15.6131 61.9856 16.3273C62.2897 17.0414 62.3693 17.8272 62.2143 18.5853C62.0592 19.3434 61.6765 20.0398 61.1145 20.5863C60.5525 21.1329 59.8365 21.5051 59.057 21.6559C58.2775 21.8067 57.4695 21.7293 56.7352 21.4335C56.001 21.1377 55.3734 20.6368 54.9318 19.9941C54.4903 19.3514 54.2546 18.5958 54.2546 17.8229C54.2546 16.7864 54.678 15.7923 55.4316 15.0594C56.1852 14.3265 57.2073 13.9147 58.273 13.9147ZM58.273 32.7303C56.6854 32.7233 55.1236 32.3396 53.723 31.6127C52.3223 30.8857 51.1252 29.8374 50.2354 28.5586C50.3 25.9529 55.5938 24.5187 58.273 24.5187C60.9522 24.5187 66.2461 25.9529 66.3106 28.5586C65.4198 29.8364 64.2225 30.884 62.8221 31.6109C61.4217 32.3377 59.8603 32.722 58.273 32.7303Z" fill="#8ECC8E"/>
</svg>
